Hubli-wire.ufo
<glyph name="exclam" format="1">
  <advance width="337"/>
  <unicode hex="0021"/>
  <outline>
    <contour>
      <point x="165" y="91" type="move"/>
      <point x="167" y="80"/>
      <point x="167" y="67"/>
      <point x="167" y="47" type="curve" smooth="yes"/>
      <point x="167" y="33"/>
      <point x="166" y="20"/>
      <point x="164" y="8" type="curve" smooth="yes"/>
      <point x="158" y="-28"/>
    </contour>
    <contour>
      <point x="167" y="269" type="move"/>
      <point x="174" y="547" type="line"/>
    </contour>
  </outline>
</glyph>
<glyph name="quotesingle" format="1">
  <advance width="235"/>
  <unicode hex="0027"/>
  <outline>
    <contour>
      <point x="114" y="581" type="move"/>
      <point x="118" y="569"/>
      <point x="120" y="551"/>
      <point x="120" y="532" type="curve" smooth="yes"/>
      <point x="120" y="486"/>
      <point x="104" y="440"/>
      <point x="78" y="405" type="curve" smooth="yes"/>
      <point x="57" y="375"/>
    </contour>
  </outline>
</glyph>
<glyph name="comma" format="1">
  <advance width="255.0"/>
  <unicode hex="002C"/>
  <outline>
    <contour>
      <point x="122.003451446" y="92" type="move"/>
      <point x="126.003451446" y="79"/>
      <point x="128.003451446" y="60"/>
      <point x="128.003451446" y="40" type="curve" smooth="yes"/>
      <point x="128.003451446" y="-9"/>
      <point x="111.003451446" y="-58"/>
      <point x="84.0034514458" y="-95" type="curve" smooth="yes"/>
      <point x="61.0034514458" y="-127"/>
    </contour>
  </outline>
</glyph>
<glyph name="hyphen" format="1">
  <advance width="425"/>
  <unicode hex="002D"/>
  <outline>
    <contour>
      <point x="114" y="222" type="move"/>
      <point x="316" y="222" type="line"/>
    </contour>
  </outline>
</glyph>
<glyph name="period" format="1">
  <advance width="235"/>
  <unicode hex="002E"/>
  <outline>
    <contour>
      <point x="118" y="91" type="move"/>
      <point x="120" y="80"/>
      <point x="120" y="67"/>
      <point x="120" y="47" type="curve" smooth="yes"/>
      <point x="120" y="33"/>
      <point x="119" y="20"/>
      <point x="117" y="8" type="curve" smooth="yes"/>
      <point x="111" y="-28"/>
    </contour>
  </outline>
</glyph>
<glyph name="zero" format="1">
  <advance width="576"/>
  <unicode hex="0030"/>
  <outline>
    <contour>
      <point x="285" y="519" type="curve" smooth="yes"/>
      <point x="167" y="519"/>
      <point x="85" y="415"/>
      <point x="85" y="268" type="curve" smooth="yes"/>
      <point x="85" y="133"/>
      <point x="169" y="20"/>
      <point x="285" y="20" type="curve" smooth="yes"/>
      <point x="411" y="20"/>
      <point x="482" y="133"/>
      <point x="482" y="270" type="curve" smooth="yes"/>
      <point x="482" y="415"/>
      <point x="394" y="519"/>
    </contour>
  </outline>
</glyph>
<glyph name="one" format="1">
  <advance width="329"/>
  <unicode hex="0031"/>
  <outline>
    <contour>
      <point x="201" y="510" type="move"/>
      <point x="201" y="410"/>
      <point x="202" y="146"/>
      <point x="201" y="27" type="curve"/>
    </contour>
    <contour>
      <point x="201" y="517" type="move"/>
      <point x="62" y="437" type="line"/>
    </contour>
  </outline>
</glyph>
<glyph name="two" format="1">
  <advance width="531"/>
  <unicode hex="0032"/>
  <outline>
    <contour>
      <point x="101" y="36" type="move"/>
      <point x="261" y="195" type="line" smooth="yes"/>
      <point x="368" y="301"/>
      <point x="400" y="342"/>
      <point x="400" y="404" type="curve" smooth="yes"/>
      <point x="400" y="463"/>
      <point x="355" y="518"/>
      <point x="263" y="518" type="curve" smooth="yes"/>
      <point x="211" y="518"/>
      <point x="170" y="503"/>
      <point x="123" y="472" type="curve"/>
    </contour>
    <contour>
      <point x="435" y="27" type="move"/>
      <point x="343" y="27"/>
      <point x="147" y="27"/>
      <point x="91" y="27" type="curve" smooth="yes"/>
    </contour>
  </outline>
</glyph>
<glyph name="three" format="1">
  <advance width="531"/>
  <unicode hex="0033"/>
  <outline>
    <contour>
      <point x="120" y="511" type="move"/>
      <point x="211" y="511"/>
      <point x="362" y="511"/>
      <point x="417" y="511" type="curve" smooth="yes"/>
    </contour>
    <contour>
      <point x="103" y="54" type="move"/>
      <point x="145" y="36"/>
      <point x="198" y="23"/>
      <point x="260" y="23" type="curve" smooth="yes"/>
      <point x="376" y="23"/>
      <point x="432" y="81"/>
      <point x="432" y="159" type="curve" smooth="yes"/>
      <point x="432" y="236"/>
      <point x="372" y="289"/>
      <point x="271" y="289" type="curve" smooth="yes"/>
      <point x="224" y="289"/>
      <point x="186" y="281"/>
      <point x="164" y="274" type="curve"/>
    </contour>
    <contour>
      <point x="408" y="503" type="move"/>
      <point x="169" y="278" type="line" smooth="yes"/>
    </contour>
  </outline>
</glyph>
<glyph name="four" format="1">
  <advance width="494"/>
  <unicode hex="0034"/>
  <outline>
    <contour>
      <point x="329" y="527" type="move"/>
      <point x="329" y="426"/>
      <point x="329" y="150"/>
      <point x="329" y="27" type="curve"/>
    </contour>
    <contour>
      <point x="322" y="518" type="move"/>
      <point x="42" y="169" type="line"/>
    </contour>
    <contour>
      <point x="52" y="169" type="move"/>
      <point x="442" y="169" type="line"/>
    </contour>
  </outline>
</glyph>
<glyph name="five" format="1">
  <advance width="531"/>
  <unicode hex="0035"/>
  <outline>
    <contour>
      <point x="132" y="512" type="move"/>
      <point x="227" y="512"/>
      <point x="338" y="512"/>
      <point x="396" y="512" type="curve" smooth="yes"/>
    </contour>
    <contour>
      <point x="101" y="62" type="move"/>
      <point x="144" y="42"/>
      <point x="204" y="23"/>
      <point x="264" y="23" type="curve" smooth="yes"/>
      <point x="378" y="23"/>
      <point x="430" y="88"/>
      <point x="430" y="171" type="curve" smooth="yes"/>
      <point x="430" y="249"/>
      <point x="369" y="307"/>
      <point x="274" y="307" type="curve" smooth="yes"/>
      <point x="202" y="307"/>
      <point x="164" y="293"/>
      <point x="132" y="285" type="curve"/>
    </contour>
    <contour>
      <point x="132" y="505" type="move"/>
      <point x="132" y="290" type="line" smooth="yes"/>
    </contour>
  </outline>
</glyph>
<glyph name="six" format="1">
  <advance width="576"/>
  <unicode hex="0036"/>
  <outline>
    <contour>
      <point x="398" y="502" type="move"/>
      <point x="371" y="510"/>
      <point x="349" y="516"/>
      <point x="316" y="516" type="curve" smooth="yes"/>
      <point x="185" y="516"/>
      <point x="105" y="417"/>
      <point x="105" y="251" type="curve" smooth="yes"/>
      <point x="105" y="98"/>
      <point x="183" y="23"/>
      <point x="295" y="23" type="curve" smooth="yes"/>
      <point x="414" y="23"/>
      <point x="462" y="101"/>
      <point x="462" y="175" type="curve" smooth="yes"/>
      <point x="462" y="257"/>
      <point x="402" y="313"/>
      <point x="315" y="313" type="curve" smooth="yes"/>
      <point x="225" y="313"/>
      <point x="151" y="252"/>
      <point x="121" y="144" type="curve"/>
    </contour>
  </outline>
</glyph>
<glyph name="seven" format="1">
  <advance width="476"/>
  <unicode hex="0037"/>
  <outline>
    <contour>
      <point x="418" y="510" type="move"/>
      <point x="380" y="439"/>
      <point x="277" y="301"/>
      <point x="248" y="250" type="curve" smooth="yes"/>
      <point x="221" y="201"/>
      <point x="199" y="141"/>
      <point x="199" y="82" type="curve" smooth="yes"/>
      <point x="199" y="27" type="line"/>
    </contour>
    <contour>
      <point x="411" y="511" type="move"/>
      <point x="68" y="511" type="line"/>
    </contour>
  </outline>
</glyph>
<glyph name="eight" format="1">
  <advance width="612.0"/>
  <unicode hex="0038"/>
  <outline>
    <contour>
      <point x="302.98" y="305" type="curve" smooth="yes"/>
      <point x="176.98" y="305"/>
      <point x="105.98" y="248"/>
      <point x="105.98" y="162" type="curve" smooth="yes"/>
      <point x="105.98" y="84"/>
      <point x="170.98" y="19"/>
      <point x="302.98" y="19" type="curve" smooth="yes"/>
      <point x="443.98" y="19"/>
      <point x="497.98" y="84"/>
      <point x="497.98" y="163" type="curve" smooth="yes"/>
      <point x="497.98" y="248"/>
      <point x="420.98" y="305"/>
    </contour>
    <contour>
      <point x="302.98" y="554" type="curve" smooth="yes"/>
      <point x="195.98" y="554"/>
      <point x="133.98" y="503"/>
      <point x="133.98" y="430" type="curve" smooth="yes"/>
      <point x="133.98" y="362"/>
      <point x="185.98" y="306"/>
      <point x="302.98" y="306" type="curve" smooth="yes"/>
      <point x="414.98" y="306"/>
      <point x="469.98" y="362"/>
      <point x="469.98" y="430" type="curve" smooth="yes"/>
      <point x="469.98" y="503"/>
      <point x="404.98" y="554"/>
    </contour>
  </outline>
</glyph>
<glyph name="nine" format="1">
  <advance width="612.0"/>
  <unicode hex="0039"/>
  <outline>
    <contour>
      <point x="178.96" y="41" type="move"/>
      <point x="206.96" y="33"/>
      <point x="230.96" y="27"/>
      <point x="266.96" y="27" type="curve" smooth="yes"/>
      <point x="414.96" y="27"/>
      <point x="487.96" y="122"/>
      <point x="487.96" y="289" type="curve" smooth="yes"/>
      <point x="487.96" y="457"/>
      <point x="406.96" y="549"/>
      <point x="284.96" y="549" type="curve" smooth="yes"/>
      <point x="167.96" y="549"/>
      <point x="110.96" y="468"/>
      <point x="110.96" y="389" type="curve" smooth="yes"/>
      <point x="110.96" y="291"/>
      <point x="170.96" y="234"/>
      <point x="275.96" y="234" type="curve" smooth="yes"/>
      <point x="373.96" y="234"/>
      <point x="435.96" y="292"/>
      <point x="483.96" y="370" type="curve"/>
    </contour>
  </outline>
</glyph>
<glyph name="colon" format="1">
  <advance width="250"/>
  <unicode hex="003A"/>
  <outline>
    <contour>
      <point x="122.96" y="389" type="move"/>
      <point x="122.96" y="375"/>
      <point x="122.96" y="366"/>
      <point x="122.96" y="346" type="curve" smooth="yes"/>
      <point x="122.96" y="331"/>
      <point x="123.96" y="307"/>
      <point x="125.96" y="295" type="curve" smooth="yes"/>
      <point x="131.96" y="256"/>
    </contour>
    <contour>
      <point x="122.96" y="121" type="move"/>
      <point x="122.96" y="107"/>
      <point x="122.96" y="98"/>
      <point x="122.96" y="78" type="curve" smooth="yes"/>
      <point x="122.96" y="63"/>
      <point x="123.96" y="39"/>
      <point x="125.96" y="27" type="curve" smooth="yes"/>
      <point x="131.96" y="-12"/>
    </contour>
  </outline>
</glyph>
<glyph name="semicolon" format="1">
  <advance width="250"/>
  <unicode hex="003B"/>
  <outline>
    <contour>
      <point x="122.98" y="389" type="move"/>
      <point x="122.98" y="375"/>
      <point x="122.98" y="366"/>
      <point x="122.98" y="346" type="curve" smooth="yes"/>
      <point x="122.98" y="331"/>
      <point x="123.98" y="307"/>
      <point x="125.98" y="295" type="curve" smooth="yes"/>
      <point x="131.98" y="256"/>
    </contour>
    <contour>
      <point x="120.98" y="92" type="move"/>
      <point x="124.98" y="79"/>
      <point x="126.98" y="60"/>
      <point x="126.98" y="40" type="curve" smooth="yes"/>
      <point x="126.98" y="-9"/>
      <point x="109.98" y="-58"/>
      <point x="82.98" y="-95" type="curve" smooth="yes"/>
      <point x="59.98" y="-127"/>
    </contour>
  </outline>
</glyph>
<glyph name="question" format="1">
  <advance width="363"/>
  <unicode hex="003F"/>
  <outline>
    <contour>
      <point x="170.98" y="97" type="move"/>
      <point x="172.98" y="84"/>
      <point x="172.98" y="70"/>
      <point x="172.98" y="50" type="curve" smooth="yes"/>
      <point x="172.98" y="35"/>
      <point x="171.98" y="20"/>
      <point x="169.98" y="8" type="curve" smooth="yes"/>
      <point x="163.98" y="-31"/>
    </contour>
    <contour>
      <point x="69.98" y="541" type="move"/>
      <point x="106.98" y="565"/>
      <point x="144.98" y="578"/>
      <point x="185.98" y="578" type="curve" smooth="yes"/>
      <point x="266.98" y="578"/>
      <point x="302.98" y="527"/>
      <point x="302.98" y="482" type="curve" smooth="yes"/>
      <point x="302.98" y="439"/>
      <point x="271.98" y="408"/>
      <point x="219.98" y="382" type="curve" smooth="yes"/>
      <point x="169.98" y="356"/>
      <point x="152.98" y="332"/>
      <point x="152.98" y="307" type="curve" smooth="yes"/>
      <point x="152.98" y="287"/>
      <point x="161.98" y="267"/>
      <point x="185.98" y="248" type="curve"/>
    </contour>
  </outline>
</glyph>
<glyph name="A" format="1">
  <advance width="562"/>
  <unicode hex="0041"/>
  <outline>
    <contour>
      <point x="272" y="521" type="move"/>
      <point x="204" y="368"/>
      <point x="109" y="153"/>
      <point x="64" y="27" type="curve"/>
    </contour>
    <contour>
      <point x="278" y="521" type="move"/>
      <point x="350" y="367"/>
      <point x="448" y="150"/>
      <point x="496" y="27" type="curve"/>
    </contour>
    <contour>
      <point x="133" y="172" type="move"/>
      <point x="424" y="172" type="line"/>
    </contour>
  </outline>
</glyph>
<glyph name="B" format="1">
  <advance width="541"/>
  <unicode hex="0042"/>
  <outline>
    <contour>
      <point x="137" y="287" type="move"/>
      <point x="306" y="287" type="line" smooth="yes"/>
      <point x="412" y="287"/>
      <point x="465" y="224"/>
      <point x="465" y="154" type="curve" smooth="yes"/>
      <point x="465" y="88"/>
      <point x="423" y="27"/>
      <point x="303" y="27" type="curve" smooth="yes"/>
      <point x="128" y="27" type="line"/>
      <point x="128" y="512" type="line"/>
      <point x="286" y="512" type="line" smooth="yes"/>
      <point x="380" y="512"/>
      <point x="423" y="461"/>
      <point x="423" y="404" type="curve" smooth="yes"/>
      <point x="423" y="347"/>
      <point x="378" y="298"/>
      <point x="319" y="287" type="curve"/>
    </contour>
  </outline>
</glyph>
<glyph name="C" format="1">
  <advance width="575"/>
  <unicode hex="0043"/>
  <outline>
    <contour>
      <point x="466.98" y="521" type="move"/>
      <point x="430.98" y="538"/>
      <point x="384.98" y="552"/>
      <point x="331.98" y="552" type="curve" smooth="yes"/>
      <point x="195.98" y="552"/>
      <point x="90.98" y="440"/>
      <point x="90.98" y="282" type="curve" smooth="yes"/>
      <point x="90.98" y="138"/>
      <point x="170.98" y="14"/>
      <point x="338.98" y="14" type="curve" smooth="yes"/>
      <point x="394.98" y="14"/>
      <point x="425.98" y="24"/>
      <point x="469.98" y="44" type="curve"/>
    </contour>
  </outline>
</glyph>
<glyph name="D" format="1">
  <advance width="576"/>
  <unicode hex="0044"/>
  <outline>
    <contour>
      <point x="270" y="27" type="line" smooth="yes"/>
      <point x="408" y="27"/>
      <point x="487" y="135"/>
      <point x="487" y="270" type="curve" smooth="yes"/>
      <point x="487" y="412"/>
      <point x="390" y="512"/>
      <point x="270" y="512" type="curve" smooth="yes"/>
      <point x="124" y="512" type="line"/>
      <point x="124" y="27" type="line"/>
    </contour>
  </outline>
</glyph>
<glyph name="E" format="1">
  <advance width="476"/>
  <unicode hex="0045"/>
  <outline>
    <contour>
      <point x="122" y="512" type="move"/>
      <point x="122" y="400"/>
      <point x="123" y="136"/>
      <point x="122" y="27" type="curve"/>
    </contour>
    <contour>
      <point x="130" y="27" type="move"/>
      <point x="219" y="27"/>
      <point x="331" y="27"/>
      <point x="386" y="27" type="curve"/>
    </contour>
    <contour>
      <point x="130" y="512" type="move"/>
      <point x="219" y="512"/>
      <point x="329" y="512"/>
      <point x="384" y="512" type="curve"/>
    </contour>
    <contour>
      <point x="130" y="288" type="move"/>
      <point x="219" y="288"/>
      <point x="292" y="288"/>
      <point x="346" y="288" type="curve"/>
    </contour>
  </outline>
</glyph>
<glyph name="F" format="1">
  <advance width="476"/>
  <unicode hex="0046"/>
  <outline>
    <contour>
      <point x="122" y="512" type="move"/>
      <point x="122" y="27" type="line"/>
    </contour>
    <contour>
      <point x="130" y="512" type="move"/>
      <point x="392" y="512" type="line"/>
    </contour>
    <contour>
      <point x="130" y="269" type="move"/>
      <point x="346" y="269" type="line"/>
    </contour>
  </outline>
</glyph>
<glyph name="G" format="1">
  <advance width="568"/>
  <unicode hex="0047"/>
  <outline>
    <contour>
      <point x="457" y="493" type="move"/>
      <point x="410" y="513"/>
      <point x="366" y="521"/>
      <point x="324" y="521" type="curve" smooth="yes"/>
      <point x="180" y="521"/>
      <point x="85" y="419"/>
      <point x="85" y="266" type="curve" smooth="yes"/>
      <point x="85" y="128"/>
      <point x="165" y="18"/>
      <point x="318" y="18" type="curve" smooth="yes"/>
      <point x="387" y="18"/>
      <point x="439" y="32"/>
      <point x="487" y="58" type="curve"/>
      <point x="487" y="58"/>
    </contour>
    <contour>
      <point x="488" y="68" type="move"/>
      <point x="488" y="251" type="line"/>
    </contour>
    <contour>
      <point x="477" y="251" type="move"/>
      <point x="334" y="251" type="line"/>
    </contour>
  </outline>
</glyph>
<glyph name="H" format="1">
  <advance width="580"/>
  <unicode hex="0048"/>
  <outline>
    <contour>
      <point x="120" y="512" type="move"/>
      <point x="120" y="400"/>
      <point x="113" y="136"/>
      <point x="108" y="27" type="curve"/>
    </contour>
    <contour>
      <point x="474" y="512" type="move"/>
      <point x="468" y="369"/>
      <point x="467" y="144"/>
      <point x="465" y="27" type="curve"/>
    </contour>
    <contour>
      <point x="119" y="287" type="move"/>
      <point x="194" y="287"/>
      <point x="395" y="287"/>
      <point x="465" y="287" type="curve"/>
    </contour>
  </outline>
</glyph>
<glyph name="I" format="1">
  <advance width="266"/>
  <unicode hex="0049"/>
  <outline>
    <contour>
      <point x="133" y="512" type="move"/>
      <point x="133" y="27" type="line"/>
    </contour>
  </outline>
</glyph>
<glyph name="J" format="1">
  <advance width="399"/>
  <unicode hex="004A"/>
  <outline>
    <contour>
      <point x="70" y="37" type="move"/>
      <point x="102" y="29"/>
      <point x="131" y="22"/>
      <point x="161" y="22" type="curve" smooth="yes"/>
      <point x="244" y="22"/>
      <point x="283" y="69"/>
      <point x="283" y="169" type="curve" smooth="yes"/>
      <point x="283" y="512" type="line"/>
    </contour>
  </outline>
</glyph>
<glyph name="K" format="1">
  <advance width="563"/>
  <unicode hex="004B"/>
  <outline>
    <contour>
      <point x="128.96" y="543" type="move"/>
      <point x="128.96" y="424"/>
      <point x="129.96" y="143"/>
      <point x="128.96" y="27" type="curve"/>
    </contour>
    <contour>
      <point x="261.96" y="323" type="move"/>
      <point x="317.96" y="247"/>
      <point x="435.96" y="94"/>
      <point x="485.96" y="27" type="curve"/>
    </contour>
    <contour>
      <point x="128.96" y="205" type="move"/>
      <point x="179.96" y="252"/>
      <point x="369.96" y="430"/>
      <point x="475.96" y="543" type="curve"/>
    </contour>
  </outline>
</glyph>
<glyph name="M" format="1">
  <advance width="783"/>
  <unicode hex="004D"/>
  <outline>
    <contour>
      <point x="175" y="517" type="move"/>
      <point x="152" y="374"/>
      <point x="122" y="141"/>
      <point x="110" y="25" type="curve"/>
    </contour>
    <contour>
      <point x="611" y="518" type="move"/>
      <point x="641" y="362"/>
      <point x="670" y="159"/>
      <point x="689" y="25" type="curve"/>
    </contour>
    <contour>
      <point x="186" y="504" type="move"/>
      <point x="245" y="377"/>
      <point x="334" y="174"/>
      <point x="398" y="34" type="curve"/>
    </contour>
    <contour>
      <point x="401" y="46" type="move"/>
      <point x="458" y="182"/>
      <point x="533" y="364"/>
      <point x="604" y="510" type="curve"/>
    </contour>
  </outline>
</glyph>
<glyph name="N" format="1">
  <advance width="617"/>
  <unicode hex="004E"/>
  <outline>
    <contour>
      <point x="118.96" y="544" type="move"/>
      <point x="118.96" y="424"/>
      <point x="114.96" y="152"/>
      <point x="114.96" y="27" type="curve"/>
    </contour>
    <contour>
      <point x="486.96" y="543" type="move"/>
      <point x="486.96" y="401"/>
      <point x="483.96" y="170"/>
      <point x="483.96" y="26" type="curve"/>
    </contour>
    <contour>
      <point x="125.96" y="544" type="move"/>
      <point x="195.96" y="437"/>
      <point x="369.96" y="178"/>
      <point x="474.96" y="26" type="curve"/>
    </contour>
  </outline>
</glyph>
<glyph name="O" format="1">
  <advance width="615"/>
  <unicode hex="004F"/>
  <outline>
    <contour>
      <point x="311" y="521" type="curve" smooth="yes"/>
      <point x="176" y="521"/>
      <point x="85" y="417"/>
      <point x="85" y="266" type="curve" smooth="yes"/>
      <point x="85" y="128"/>
      <point x="178" y="14"/>
      <point x="311" y="14" type="curve" smooth="yes"/>
      <point x="452" y="14"/>
      <point x="533" y="128"/>
      <point x="533" y="269" type="curve" smooth="yes"/>
      <point x="533" y="417"/>
      <point x="434" y="521"/>
    </contour>
  </outline>
</glyph>
<glyph name="P" format="1">
  <advance width="526"/>
  <unicode hex="0050"/>
  <outline>
    <contour>
      <point x="150" y="203" type="move"/>
      <point x="261" y="203" type="line" smooth="yes"/>
      <point x="374" y="203"/>
      <point x="429" y="273"/>
      <point x="429" y="358" type="curve" smooth="yes"/>
      <point x="429" y="448"/>
      <point x="362" y="512"/>
      <point x="261" y="512" type="curve" smooth="yes"/>
      <point x="124" y="512" type="line"/>
      <point x="124" y="27" type="line"/>
    </contour>
  </outline>
</glyph>
<glyph name="Q" format="1">
  <advance width="620"/>
  <unicode hex="0051"/>
  <outline>
    <contour>
      <point x="313" y="15" type="move"/>
      <point x="332" y="-58"/>
      <point x="401" y="-116"/>
      <point x="507" y="-116" type="curve"/>
    </contour>
    <contour>
      <point x="312" y="521" type="curve" smooth="yes"/>
      <point x="177" y="521"/>
      <point x="86" y="417"/>
      <point x="86" y="266" type="curve" smooth="yes"/>
      <point x="86" y="128"/>
      <point x="179" y="18"/>
      <point x="312" y="18" type="curve" smooth="yes"/>
      <point x="453" y="18"/>
      <point x="534" y="128"/>
      <point x="534" y="269" type="curve" smooth="yes"/>
      <point x="534" y="417"/>
      <point x="435" y="521"/>
    </contour>
  </outline>
</glyph>
<glyph name="R" format="1">
  <advance width="526"/>
  <unicode hex="0052"/>
  <outline>
    <contour>
      <point x="150" y="226" type="move"/>
      <point x="261" y="226" type="line" smooth="yes"/>
      <point x="372" y="226"/>
      <point x="427" y="291"/>
      <point x="427" y="369" type="curve" smooth="yes"/>
      <point x="427" y="453"/>
      <point x="361" y="512"/>
      <point x="261" y="512" type="curve" smooth="yes"/>
      <point x="124" y="512" type="line"/>
      <point x="124" y="27" type="line"/>
    </contour>
    <contour>
      <point x="308" y="213" type="move"/>
      <point x="445" y="27" type="line"/>
    </contour>
  </outline>
</glyph>
<glyph name="S" format="1">
  <advance width="531"/>
  <unicode hex="0053"/>
  <outline>
    <contour>
      <point x="412" y="482" type="move"/>
      <point x="367" y="503"/>
      <point x="321" y="518"/>
      <point x="249" y="518" type="curve" smooth="yes"/>
      <point x="168" y="518"/>
      <point x="114" y="467"/>
      <point x="114" y="414" type="curve" smooth="yes"/>
      <point x="114" y="364"/>
      <point x="136" y="308"/>
      <point x="270" y="282" type="curve" smooth="yes"/>
      <point x="392" y="255"/>
      <point x="430" y="204"/>
      <point x="430" y="140" type="curve" smooth="yes"/>
      <point x="430" y="76"/>
      <point x="383" y="18"/>
      <point x="269" y="18" type="curve" smooth="yes"/>
      <point x="213" y="18"/>
      <point x="146" y="36"/>
      <point x="94" y="69" type="curve"/>
    </contour>
  </outline>
</glyph>
<glyph name="T" format="1">
  <advance width="569"/>
  <unicode hex="0054"/>
  <outline>
    <contour>
      <point x="282" y="512" type="move"/>
      <point x="282" y="400"/>
      <point x="282" y="161"/>
      <point x="282" y="27" type="curve"/>
    </contour>
    <contour>
      <point x="70" y="512" type="move"/>
      <point x="498" y="512" type="line"/>
    </contour>
  </outline>
</glyph>
<glyph name="U" format="1">
  <advance width="596"/>
  <unicode hex="0055"/>
  <outline>
    <contour>
      <point x="116" y="512" type="move"/>
      <point x="116" y="445"/>
      <point x="116" y="291"/>
      <point x="116" y="216" type="curve" smooth="yes"/>
      <point x="116" y="89"/>
      <point x="190" y="14"/>
      <point x="297" y="14" type="curve" smooth="yes"/>
      <point x="415" y="14"/>
      <point x="481" y="89"/>
      <point x="481" y="219" type="curve" smooth="yes"/>
      <point x="481" y="291"/>
      <point x="481" y="415"/>
      <point x="481" y="512" type="curve"/>
    </contour>
  </outline>
</glyph>
<glyph name="V" format="1">
  <advance width="616"/>
  <unicode hex="0056"/>
  <outline>
    <contour>
      <point x="92.4841689638" y="544" type="move"/>
      <point x="135.484168964" y="413"/>
      <point x="257.484168964" y="102"/>
      <point x="299.484168964" y="23" type="curve"/>
    </contour>
    <contour>
      <point x="303.484168964" y="17" type="move"/>
      <point x="350.484168964" y="107"/>
      <point x="470.484168964" y="391"/>
      <point x="522.484168964" y="543" type="curve"/>
    </contour>
  </outline>
</glyph>
<glyph name="W" format="1">
  <advance width="893"/>
  <unicode hex="0057"/>
  <outline>
    <contour>
      <point x="89" y="511" type="move"/>
      <point x="123" y="387"/>
      <point x="223" y="98"/>
      <point x="258" y="24" type="curve"/>
    </contour>
    <contour>
      <point x="262" y="18" type="move"/>
      <point x="299" y="102"/>
      <point x="404" y="367"/>
      <point x="447" y="508" type="curve"/>
    </contour>
    <contour>
      <point x="451" y="496" type="move"/>
      <point x="489" y="374"/>
      <point x="592" y="97"/>
      <point x="628" y="23" type="curve"/>
    </contour>
    <contour>
      <point x="632" y="17" type="move"/>
      <point x="669" y="101"/>
      <point x="764" y="368"/>
      <point x="805" y="511" type="curve"/>
    </contour>
  </outline>
</glyph>
<glyph name="X" format="1">
  <advance width="616"/>
  <unicode hex="0058"/>
  <outline>
    <contour>
      <point x="172.94" y="544" type="move"/>
      <point x="273.94" y="391"/>
      <point x="475.94" y="117"/>
      <point x="537.94" y="27" type="curve"/>
    </contour>
    <contour>
      <point x="160.94" y="27" type="move"/>
      <point x="245.94" y="141"/>
      <point x="426.94" y="401"/>
      <point x="518.94" y="543" type="curve"/>
    </contour>
  </outline>
</glyph>
<glyph name="Y" format="1">
  <advance width="570"/>
  <unicode hex="0059"/>
  <outline>
    <contour>
      <point x="287" y="213" type="move"/>
      <point x="287" y="27" type="line"/>
    </contour>
    <contour>
      <point x="79" y="512" type="move"/>
      <point x="121" y="442"/>
      <point x="241" y="282"/>
      <point x="284" y="225" type="curve"/>
    </contour>
    <contour>
      <point x="287" y="219" type="move"/>
      <point x="336" y="285"/>
      <point x="450" y="443"/>
      <point x="491" y="512" type="curve"/>
    </contour>
  </outline>
</glyph>
<glyph name="Z" format="1">
  <advance width="510"/>
  <unicode hex="005A"/>
  <outline>
    <contour>
      <point x="417" y="512" type="move"/>
      <point x="354" y="417"/>
      <point x="154" y="117"/>
      <point x="101" y="35" type="curve"/>
    </contour>
    <contour>
      <point x="110" y="512" type="move"/>
      <point x="202" y="512"/>
      <point x="348" y="512"/>
      <point x="406" y="512" type="curve"/>
    </contour>
    <contour>
      <point x="97" y="27" type="move"/>
      <point x="189" y="27"/>
      <point x="361" y="27"/>
      <point x="417" y="27" type="curve"/>
    </contour>
  </outline>
</glyph>
<glyph name="grave" format="1">
  <advance width="500"/>
  <unicode hex="0060"/>
  <outline>
    <contour>
      <point x="201" y="615" type="move"/>
      <point x="229" y="580"/>
      <point x="262" y="538"/>
      <point x="286" y="499" type="curve"/>
    </contour>
  </outline>
</glyph>
<glyph name="a" format="1">
  <advance width="474"/>
  <unicode hex="0061"/>
  <outline>
    <contour>
      <point x="125.98" y="376" type="move"/>
      <point x="148.98" y="387"/>
      <point x="187.98" y="396"/>
      <point x="223.98" y="396" type="curve" smooth="yes"/>
      <point x="317.98" y="396"/>
      <point x="361.98" y="336"/>
      <point x="361.98" y="250" type="curve" smooth="yes"/>
      <point x="361.98" y="198"/>
      <point x="361.98" y="140"/>
      <point x="361.98" y="115" type="curve" smooth="yes"/>
      <point x="361.98" y="67"/>
      <point x="374.98" y="37"/>
      <point x="389.98" y="14" type="curve" smooth="yes"/>
      <point x="406.98" y="-12"/>
    </contour>
    <contour>
      <point x="355.98" y="213" type="move"/>
      <point x="319.98" y="219"/>
      <point x="284.98" y="224"/>
      <point x="251.98" y="224" type="curve" smooth="yes"/>
      <point x="149.98" y="224"/>
      <point x="86.98" y="178"/>
      <point x="86.98" y="109" type="curve" smooth="yes"/>
      <point x="86.98" y="56"/>
      <point x="130.98" y="16"/>
      <point x="192.98" y="16" type="curve" smooth="yes"/>
      <point x="270.98" y="16"/>
      <point x="323.98" y="55"/>
      <point x="362.98" y="107" type="curve" smooth="yes"/>
      <point x="374.98" y="123"/>
    </contour>
  </outline>
</glyph>
<glyph name="b" format="1">
  <advance width="493"/>
  <unicode hex="0062"/>
  <outline>
    <contour>
      <point x="106" y="15" type="move"/>
      <point x="106" y="537" type="line"/>
    </contour>
    <contour>
      <point x="106" y="73" type="move"/>
      <point x="152" y="36"/>
      <point x="200" y="17"/>
      <point x="268" y="17" type="curve" smooth="yes"/>
      <point x="348" y="17"/>
      <point x="406" y="79"/>
      <point x="406" y="197" type="curve" smooth="yes"/>
      <point x="406" y="320"/>
      <point x="346" y="379"/>
      <point x="270" y="379" type="curve" smooth="yes"/>
      <point x="210" y="379"/>
      <point x="152" y="334"/>
      <point x="107" y="262" type="curve" smooth="yes"/>
      <point x="77" y="213"/>
    </contour>
  </outline>
</glyph>
<glyph name="c" format="1">
  <advance width="439"/>
  <unicode hex="0063"/>
  <outline>
    <contour>
      <point x="342" y="353" type="move"/>
      <point x="309" y="369"/>
      <point x="278" y="378"/>
      <point x="241" y="378" type="curve" smooth="yes"/>
      <point x="134" y="378"/>
      <point x="77" y="286"/>
      <point x="77" y="189" type="curve" smooth="yes"/>
      <point x="77" y="98"/>
      <point x="126" y="18"/>
      <point x="249" y="18" type="curve" smooth="yes"/>
      <point x="290" y="18"/>
      <point x="328" y="30"/>
      <point x="358" y="47" type="curve"/>
    </contour>
  </outline>
</glyph>
<glyph name="d" format="1">
  <advance width="493"/>
  <unicode hex="0064"/>
  <outline>
    <contour>
      <point x="376" y="320" type="move"/>
      <point x="331" y="357"/>
      <point x="292" y="378"/>
      <point x="224" y="378" type="curve" smooth="yes"/>
      <point x="144" y="378"/>
      <point x="77" y="303"/>
      <point x="77" y="186" type="curve" smooth="yes"/>
      <point x="77" y="63"/>
      <point x="136" y="18"/>
      <point x="213" y="18" type="curve" smooth="yes"/>
      <point x="272" y="18"/>
      <point x="331" y="60"/>
      <point x="375" y="124" type="curve"/>
    </contour>
    <contour>
      <point x="376" y="538" type="move"/>
      <point x="376" y="113" type="line" smooth="yes"/>
      <point x="376" y="68"/>
      <point x="388" y="39"/>
      <point x="403" y="17" type="curve"/>
    </contour>
  </outline>
</glyph>
<glyph name="e" format="1">
  <advance width="473"/>
  <unicode hex="0065"/>
  <outline>
    <contour>
      <point x="98" y="201" type="move"/>
      <point x="139" y="202"/>
      <point x="218" y="201"/>
      <point x="270" y="201" type="curve" smooth="yes"/>
      <point x="326" y="201"/>
      <point x="350" y="212"/>
      <point x="365" y="226" type="curve" smooth="yes"/>
      <point x="372" y="235"/>
      <point x="383" y="252"/>
      <point x="383" y="269" type="curve" smooth="yes"/>
      <point x="383" y="316"/>
      <point x="336" y="374"/>
      <point x="250" y="374" type="curve" smooth="yes"/>
      <point x="157" y="374"/>
      <point x="90" y="293"/>
      <point x="90" y="188" type="curve" smooth="yes"/>
      <point x="90" y="69"/>
      <point x="162" y="14"/>
      <point x="264" y="14" type="curve" smooth="yes"/>
      <point x="311" y="14"/>
      <point x="334" y="22"/>
      <point x="366" y="34" type="curve"/>
      <point x="366" y="34"/>
    </contour>
  </outline>
</glyph>
<glyph name="f" format="1">
  <advance width="329"/>
  <unicode hex="0066"/>
  <outline>
    <contour>
      <point x="270" y="528" type="move"/>
      <point x="254" y="533"/>
      <point x="232" y="538"/>
      <point x="208" y="538" type="curve" smooth="yes"/>
      <point x="156" y="538"/>
      <point x="121" y="511"/>
      <point x="121" y="438" type="curve" smooth="yes"/>
      <point x="121" y="27" type="line"/>
    </contour>
    <contour>
      <point x="52" y="369" type="move"/>
      <point x="267" y="369" type="line"/>
    </contour>
  </outline>
</glyph>
<glyph name="g" format="1">
  <advance width="524"/>
  <unicode hex="0067"/>
  <outline>
    <contour>
      <point x="399.98" y="347" type="move"/>
      <point x="351.98" y="386"/>
      <point x="303.98" y="401"/>
      <point x="228.98" y="401" type="curve" smooth="yes"/>
      <point x="142.98" y="401"/>
      <point x="81.98" y="332"/>
      <point x="81.98" y="206" type="curve" smooth="yes"/>
      <point x="81.98" y="76"/>
      <point x="144.98" y="14"/>
      <point x="225.98" y="14" type="curve" smooth="yes"/>
      <point x="289.98" y="14"/>
      <point x="351.98" y="60"/>
      <point x="398.98" y="138" type="curve" smooth="yes"/>
    </contour>
    <contour>
      <point x="127.98" y="-182" type="move"/>
      <point x="155.98" y="-193"/>
      <point x="185.98" y="-198"/>
      <point x="231.98" y="-198" type="curve" smooth="yes"/>
      <point x="344.98" y="-198"/>
      <point x="399.98" y="-123"/>
      <point x="399.98" y="10" type="curve" smooth="yes"/>
      <point x="399.98" y="391" type="line"/>
    </contour>
  </outline>
</glyph>
<glyph name="h" format="1">
  <advance width="524"/>
  <unicode hex="0068"/>
  <outline>
    <contour>
      <point x="108.96" y="27" type="move"/>
      <point x="109.96" y="570" type="line"/>
    </contour>
    <contour>
      <point x="414.96" y="27" type="move"/>
      <point x="414.96" y="249" type="line" smooth="yes"/>
      <point x="414.96" y="360"/>
      <point x="363.96" y="401"/>
      <point x="295.96" y="401" type="curve" smooth="yes"/>
      <point x="227.96" y="401"/>
      <point x="157.96" y="338"/>
      <point x="113.96" y="277" type="curve" smooth="yes"/>
      <point x="77.96" y="227"/>
    </contour>
  </outline>
</glyph>
<glyph name="i" format="1">
  <advance width="251"/>
  <unicode hex="0069"/>
  <outline>
    <contour>
      <point x="124.96" y="27" type="move"/>
      <point x="124.96" y="391" type="line"/>
    </contour>
    <contour>
      <point x="125.96" y="588" type="move"/>
      <point x="125.96" y="542" type="line"/>
    </contour>
  </outline>
</glyph>
<glyph name="j" format="1">
  <advance width="251"/>
  <unicode hex="006A"/>
  <outline>
    <contour>
      <point x="8.0" y="-120" type="move"/>
      <point x="87.0" y="-120"/>
      <point x="125.0" y="-68"/>
      <point x="125.0" y="17" type="curve" smooth="yes"/>
      <point x="125.0" y="391" type="line"/>
    </contour>
    <contour>
      <point x="126.0" y="579" type="move"/>
      <point x="126.0" y="543" type="line"/>
    </contour>
  </outline>
</glyph>
<glyph name="k" format="1">
  <advance width="491"/>
  <unicode hex="006B"/>
  <outline>
    <contour>
      <point x="118" y="27" type="move"/>
      <point x="118" y="538" type="line"/>
    </contour>
    <contour>
      <point x="242" y="253" type="move"/>
      <point x="403" y="27" type="line"/>
    </contour>
    <contour>
      <point x="390" y="369" type="move"/>
      <point x="120" y="157" type="line"/>
    </contour>
  </outline>
</glyph>
<glyph name="l" format="1">
  <advance width="236"/>
  <unicode hex="006C"/>
  <outline>
    <contour>
      <point x="118" y="27" type="move"/>
      <point x="119" y="538" type="line"/>
    </contour>
  </outline>
</glyph>
<glyph name="m" format="1">
  <advance width="762"/>
  <unicode hex="006D"/>
  <outline>
    <contour>
      <point x="115" y="27" type="move"/>
      <point x="115" y="369" type="line"/>
    </contour>
    <contour>
      <point x="387" y="27" type="move"/>
      <point x="387" y="237" type="line" smooth="yes"/>
      <point x="387" y="340"/>
      <point x="339" y="369"/>
      <point x="278" y="369" type="curve" smooth="yes"/>
      <point x="216" y="369"/>
      <point x="157" y="317"/>
      <point x="117" y="259" type="curve"/>
    </contour>
    <contour>
      <point x="657" y="27" type="move"/>
      <point x="657" y="237" type="line" smooth="yes"/>
      <point x="657" y="340"/>
      <point x="609" y="369"/>
      <point x="548" y="369" type="curve" smooth="yes"/>
      <point x="486" y="369"/>
      <point x="428" y="317"/>
      <point x="387" y="259" type="curve"/>
    </contour>
  </outline>
</glyph>
<glyph name="n" format="1">
  <advance width="493"/>
  <unicode hex="006E"/>
  <outline>
    <contour>
      <point x="103" y="27" type="move"/>
      <point x="103" y="369" type="line"/>
    </contour>
    <contour>
      <point x="390" y="27" type="move"/>
      <point x="390" y="236" type="line" smooth="yes"/>
      <point x="390" y="341"/>
      <point x="342" y="378"/>
      <point x="278" y="378" type="curve" smooth="yes"/>
      <point x="215" y="378"/>
      <point x="149" y="320"/>
      <point x="107" y="262" type="curve"/>
    </contour>
  </outline>
</glyph>
<glyph name="o" format="1">
  <advance width="527"/>
  <unicode hex="006F"/>
  <outline>
    <contour>
      <point x="274.98" y="401" type="curve" smooth="yes"/>
      <point x="163.98" y="401"/>
      <point x="90.98" y="301"/>
      <point x="90.98" y="204" type="curve" smooth="yes"/>
      <point x="90.98" y="107"/>
      <point x="165.98" y="14"/>
      <point x="274.98" y="14" type="curve" smooth="yes"/>
      <point x="383.98" y="14"/>
      <point x="455.98" y="106"/>
      <point x="455.98" y="201" type="curve" smooth="yes"/>
      <point x="455.98" y="302"/>
      <point x="384.98" y="401"/>
    </contour>
  </outline>
</glyph>
<glyph name="p" format="1">
  <advance width="513"/>
  <unicode hex="0070"/>
  <outline>
    <contour>
      <point x="115" y="-164" type="move"/>
      <point x="115" y="369" type="line"/>
    </contour>
    <contour>
      <point x="115" y="91" type="move"/>
      <point x="161" y="53"/>
      <point x="216" y="27"/>
      <point x="270" y="27" type="curve" smooth="yes"/>
      <point x="368" y="27"/>
      <point x="435" y="101"/>
      <point x="435" y="198" type="curve" smooth="yes"/>
      <point x="435" y="309"/>
      <point x="363" y="369"/>
      <point x="282" y="369" type="curve" smooth="yes"/>
      <point x="217" y="369"/>
      <point x="161" y="326"/>
      <point x="116" y="262" type="curve"/>
    </contour>
  </outline>
</glyph>
<glyph name="q" format="1">
  <advance width="513"/>
  <unicode hex="0071"/>
  <outline>
    <contour>
      <point x="398" y="369" type="move"/>
      <point x="398" y="-164" type="line" smooth="yes"/>
    </contour>
    <contour>
      <point x="398" y="328" type="move"/>
      <point x="357" y="354"/>
      <point x="312" y="369"/>
      <point x="254" y="369" type="curve" smooth="yes"/>
      <point x="159" y="369"/>
      <point x="77" y="299"/>
      <point x="77" y="183" type="curve" smooth="yes"/>
      <point x="77" y="85"/>
      <point x="149" y="27"/>
      <point x="225" y="27" type="curve" smooth="yes"/>
      <point x="289" y="27"/>
      <point x="352" y="62"/>
      <point x="397" y="135" type="curve"/>
    </contour>
  </outline>
</glyph>
<glyph name="r" format="1">
  <advance width="362"/>
  <unicode hex="0072"/>
  <outline>
    <contour>
      <point x="118" y="27" type="move"/>
      <point x="118" y="369" type="line"/>
    </contour>
    <contour>
      <point x="119" y="280" type="move"/>
      <point x="149" y="340"/>
      <point x="196" y="373"/>
      <point x="239" y="373" type="curve" smooth="yes"/>
      <point x="267" y="373"/>
      <point x="284" y="369"/>
      <point x="300" y="362" type="curve"/>
    </contour>
  </outline>
</glyph>
<glyph name="s" format="1">
  <advance width="425"/>
  <unicode hex="0073"/>
  <outline>
    <contour>
      <point x="331" y="350" type="move"/>
      <point x="294" y="365"/>
      <point x="259" y="376"/>
      <point x="199" y="376" type="curve" smooth="yes"/>
      <point x="134" y="376"/>
      <point x="91" y="338"/>
      <point x="91" y="300" type="curve" smooth="yes"/>
      <point x="91" y="263"/>
      <point x="109" y="225"/>
      <point x="217" y="205" type="curve" smooth="yes"/>
      <point x="314" y="186"/>
      <point x="345" y="151"/>
      <point x="345" y="104" type="curve" smooth="yes"/>
      <point x="345" y="59"/>
      <point x="308" y="18"/>
      <point x="215" y="18" type="curve" smooth="yes"/>
      <point x="170" y="18"/>
      <point x="117" y="31"/>
      <point x="75" y="53" type="curve"/>
    </contour>
  </outline>
</glyph>
<glyph name="t" format="1">
  <advance width="374"/>
  <unicode hex="0074"/>
  <outline>
    <contour>
      <point x="141" y="495" type="move"/>
      <point x="141" y="113" type="line" smooth="yes"/>
      <point x="141" y="56"/>
      <point x="181" y="22"/>
      <point x="239" y="22" type="curve" smooth="yes"/>
      <point x="266" y="22"/>
      <point x="291" y="26"/>
      <point x="309" y="34" type="curve"/>
    </contour>
    <contour>
      <point x="53" y="369" type="move"/>
      <point x="299" y="369" type="line"/>
    </contour>
  </outline>
</glyph>
<glyph name="u" format="1">
  <advance width="480"/>
  <unicode hex="0075"/>
  <outline>
    <contour>
      <point x="377" y="369" type="move"/>
      <point x="377" y="27" type="line"/>
    </contour>
    <contour>
      <point x="102" y="369" type="move"/>
      <point x="102" y="160" type="line" smooth="yes"/>
      <point x="102" y="58"/>
      <point x="148" y="22"/>
      <point x="209" y="22" type="curve" smooth="yes"/>
      <point x="270" y="22"/>
      <point x="333" y="77"/>
      <point x="372" y="134" type="curve" smooth="yes"/>
    </contour>
  </outline>
</glyph>
<glyph name="v" format="1">
  <advance width="493"/>
  <unicode hex="0076"/>
  <outline>
    <contour>
      <point x="75" y="368" type="move"/>
      <point x="129" y="215"/>
      <point x="187" y="89"/>
      <point x="240" y="3" type="curve"/>
      <point x="243" y="3" type="line"/>
      <point x="297" y="89"/>
      <point x="366" y="258"/>
      <point x="399" y="368" type="curve" smooth="yes"/>
      <point x="412" y="409"/>
    </contour>
  </outline>
</glyph>
<glyph name="w" format="1">
  <advance width="701"/>
  <unicode hex="0077"/>
  <outline>
    <contour>
      <point x="66" y="368" type="move"/>
      <point x="116" y="215"/>
      <point x="161" y="104"/>
      <point x="202" y="18" type="curve"/>
      <point x="204" y="18" type="line"/>
      <point x="247" y="104"/>
      <point x="315" y="258"/>
      <point x="349" y="367" type="curve"/>
    </contour>
    <contour>
      <point x="356" y="367" type="move"/>
      <point x="403" y="234"/>
      <point x="456" y="103"/>
      <point x="502" y="17" type="curve"/>
      <point x="504" y="17" type="line"/>
      <point x="544" y="103"/>
      <point x="598" y="247"/>
      <point x="637" y="367" type="curve"/>
    </contour>
  </outline>
</glyph>
<glyph name="x" format="1">
  <advance width="426"/>
  <unicode hex="0078"/>
  <outline>
    <contour>
      <point x="66.98" y="27" type="move"/>
      <point x="134.98" y="106"/>
      <point x="278.98" y="284"/>
      <point x="352.98" y="390" type="curve" smooth="yes"/>
      <point x="378.98" y="427"/>
    </contour>
    <contour>
      <point x="79.98" y="391" type="move"/>
      <point x="150.98" y="297"/>
      <point x="282.98" y="137"/>
      <point x="361.98" y="27" type="curve"/>
    </contour>
  </outline>
</glyph>
<glyph name="y" format="1">
  <advance width="493"/>
  <unicode hex="0079"/>
  <outline>
    <contour>
      <point x="85" y="358" type="move"/>
      <point x="140" y="205"/>
      <point x="201" y="90"/>
      <point x="263" y="3" type="curve"/>
      <point x="266" y="3" type="line"/>
      <point x="312" y="89"/>
      <point x="366" y="237"/>
      <point x="399" y="357" type="curve" smooth="yes"/>
      <point x="411" y="399"/>
    </contour>
    <contour>
      <point x="64" y="-160" type="move"/>
      <point x="148" y="-160"/>
      <point x="220" y="-107"/>
      <point x="265" y="0" type="curve"/>
    </contour>
  </outline>
</glyph>
<glyph name="z" format="1">
  <advance width="486"/>
  <unicode hex="007A"/>
  <outline>
    <contour>
      <point x="377" y="391" type="move"/>
      <point x="100" y="391" type="line"/>
    </contour>
    <contour>
      <point x="100" y="27" type="move"/>
      <point x="396" y="27" type="line"/>
    </contour>
    <contour>
      <point x="383" y="391" type="move"/>
      <point x="100" y="35" type="line"/>
    </contour>
  </outline>
</glyph>
<glyph name="dieresis" format="1">
  <advance width="500"/>
  <unicode hex="00A8"/>
  <outline>
    <contour>
      <point x="160" y="575" type="move"/>
      <point x="160" y="565"/>
      <point x="160" y="543"/>
      <point x="159" y="530" type="curve"/>
    </contour>
    <contour>
      <point x="333" y="575" type="move"/>
      <point x="334" y="564"/>
      <point x="333" y="544"/>
      <point x="332" y="530" type="curve"/>
    </contour>
  </outline>
</glyph>
<glyph name="guillemotleft" format="1">
  <advance width="448"/>
  <unicode hex="00AB"/>
  <outline>
    <contour>
      <point x="246" y="192" type="move"/>
      <point x="357" y="68" type="line"/>
    </contour>
    <contour>
      <point x="357" y="320" type="move"/>
      <point x="246" y="196" type="line"/>
    </contour>
    <contour>
      <point x="76" y="192" type="move"/>
      <point x="187" y="68" type="line"/>
    </contour>
    <contour>
      <point x="187" y="320" type="move"/>
      <point x="76" y="196" type="line"/>
    </contour>
  </outline>
</glyph>
<glyph name="macron" format="1">
  <advance width="500"/>
  <unicode hex="00AF"/>
  <outline>
    <contour>
      <point x="355" y="538" type="move"/>
      <point x="146" y="538" type="line"/>
    </contour>
  </outline>
</glyph>
<glyph name="acute" format="1">
  <advance width="500"/>
  <unicode hex="00B4"/>
  <outline>
    <contour>
      <point x="303" y="612" type="move"/>
      <point x="269" y="576"/>
      <point x="231" y="531"/>
      <point x="211" y="500" type="curve"/>
    </contour>
  </outline>
</glyph>
<glyph name="cedilla" format="1">
  <advance width="500"/>
  <unicode hex="00B8"/>
  <outline>
    <contour>
      <point x="293" y="-70" type="move"/>
      <point x="268" y="-96"/>
      <point x="242" y="-127"/>
      <point x="219" y="-152" type="curve"/>
    </contour>
  </outline>
</glyph>
<glyph name="guillemotright" format="1">
  <advance width="448"/>
  <unicode hex="00BB"/>
  <outline>
    <contour>
      <point x="91" y="68" type="move"/>
      <point x="202" y="192" type="line"/>
    </contour>
    <contour>
      <point x="202" y="196" type="move"/>
      <point x="91" y="320" type="line"/>
    </contour>
    <contour>
      <point x="261" y="68" type="move"/>
      <point x="372" y="192" type="line"/>
    </contour>
    <contour>
      <point x="372" y="196" type="move"/>
      <point x="261" y="320" type="line"/>
    </contour>
  </outline>
</glyph>
<glyph name="dotlessi" format="1">
  <advance width="217"/>
  <unicode hex="0131"/>
  <outline>
    <contour>
      <point x="108" y="27" type="move"/>
      <point x="108" y="369" type="line"/>
    </contour>
  </outline>
</glyph>
<glyph name="circumflex" format="1">
  <advance width="500"/>
  <unicode hex="02C6"/>
  <outline>
    <contour>
      <point x="245" y="595" type="move"/>
      <point x="215" y="565"/>
      <point x="183" y="534"/>
      <point x="157" y="508" type="curve"/>
    </contour>
    <contour>
      <point x="339" y="508" type="move"/>
      <point x="313" y="534"/>
      <point x="282" y="565"/>
      <point x="251" y="595" type="curve"/>
    </contour>
  </outline>
</glyph>
<glyph name="caron" format="1">
  <advance width="500"/>
  <unicode hex="02C7"/>
  <outline>
    <contour>
      <point x="157" y="595" type="move"/>
      <point x="183" y="569"/>
      <point x="221" y="528"/>
      <point x="245" y="498" type="curve"/>
    </contour>
    <contour>
      <point x="251" y="498" type="move"/>
      <point x="274" y="528"/>
      <point x="313" y="569"/>
      <point x="339" y="595" type="curve"/>
    </contour>
  </outline>
</glyph>
<glyph name="breve" format="1">
  <advance width="500"/>
  <unicode hex="02D8"/>
  <outline>
    <contour>
      <point x="146" y="581" type="move"/>
      <point x="171" y="545"/>
      <point x="210" y="520"/>
      <point x="252" y="520" type="curve" smooth="yes"/>
      <point x="299" y="520"/>
      <point x="331" y="544"/>
      <point x="355" y="581" type="curve"/>
    </contour>
  </outline>
</glyph>
<glyph name="dotaccent" format="1">
  <advance width="500"/>
  <unicode hex="02D9"/>
  <outline>
    <contour>
      <point x="239" y="577" type="move"/>
      <point x="241" y="568"/>
      <point x="241" y="555"/>
      <point x="241" y="537" type="curve" smooth="yes"/>
      <point x="241" y="524"/>
      <point x="240" y="511"/>
      <point x="238" y="500" type="curve"/>
    </contour>
  </outline>
</glyph>
<glyph name="ring" format="1">
  <advance width="500"/>
  <unicode hex="02DA"/>
  <outline>
    <contour>
      <point x="341" y="585" type="curve" smooth="yes"/>
      <point x="341" y="626"/>
      <point x="308" y="663"/>
      <point x="254" y="663" type="curve" smooth="yes"/>
      <point x="202" y="663"/>
      <point x="170" y="623"/>
      <point x="170" y="585" type="curve" smooth="yes"/>
      <point x="170" y="547"/>
      <point x="202" y="507"/>
      <point x="254" y="507" type="curve" smooth="yes"/>
      <point x="308" y="507"/>
      <point x="341" y="544"/>
    </contour>
  </outline>
</glyph>
<glyph name="ogonek" format="1">
  <advance width="500"/>
  <unicode hex="02DB"/>
  <outline>
    <contour>
      <point x="262" y="27" type="move"/>
      <point x="230" y="-13"/>
      <point x="218" y="-42"/>
      <point x="218" y="-72" type="curve" smooth="yes"/>
      <point x="218" y="-111"/>
      <point x="246" y="-145"/>
      <point x="304" y="-145" type="curve"/>
    </contour>
  </outline>
</glyph>
<glyph name="tilde" format="1">
  <advance width="500"/>
  <unicode hex="02DC"/>
  <outline>
    <contour>
      <point x="141" y="523" type="move"/>
      <point x="157" y="541"/>
      <point x="179" y="554"/>
      <point x="197" y="554" type="curve"/>
      <point x="217" y="554"/>
      <point x="231" y="546"/>
      <point x="248" y="537" type="curve" smooth="yes"/>
      <point x="265" y="528"/>
      <point x="278" y="522"/>
      <point x="297" y="522" type="curve"/>
      <point x="319" y="522"/>
      <point x="338" y="534"/>
      <point x="359" y="555" type="curve"/>
    </contour>
  </outline>
</glyph>
<glyph name="hungarumlaut" format="1">
  <advance width="500"/>
  <unicode hex="02DD"/>
  <outline>
    <contour>
      <point x="199" y="611" type="move"/>
      <point x="177" y="576"/>
      <point x="153" y="529"/>
      <point x="141" y="499" type="curve"/>
    </contour>
    <contour>
      <point x="364" y="611" type="move"/>
      <point x="342" y="576"/>
      <point x="318" y="529"/>
      <point x="306" y="499" type="curve"/>
    </contour>
  </outline>
</glyph>
<glyph name="knAnusvara" format="1">
  <advance width="585"/>
  <unicode hex="0C82"/>
  <outline>
    <contour>
      <point x="185" y="423"/>
      <point x="98" y="329"/>
      <point x="98" y="224" type="curve" smooth="yes"/>
      <point x="98" y="118"/>
      <point x="183" y="23"/>
      <point x="296" y="23" type="curve" smooth="yes"/>
      <point x="408" y="23"/>
      <point x="492" y="119"/>
      <point x="492" y="224" type="curve" smooth="yes"/>
      <point x="492" y="327"/>
      <point x="406" y="423"/>
      <point x="296" y="423" type="curve" smooth="yes"/>
    </contour>
  </outline>
</glyph>
<glyph name="knVisarga" format="1">
  <advance width="443"/>
  <unicode hex="0C83"/>
  <outline>
    <contour>
      <point x="218" y="463" type="curve" smooth="yes"/>
      <point x="160" y="463"/>
      <point x="120" y="417"/>
      <point x="120" y="374" type="curve" smooth="yes"/>
      <point x="120" y="322"/>
      <point x="158" y="281"/>
      <point x="218" y="281" type="curve" smooth="yes"/>
      <point x="277" y="281"/>
      <point x="315" y="322"/>
      <point x="315" y="374" type="curve" smooth="yes"/>
      <point x="315" y="418"/>
      <point x="277" y="463"/>
    </contour>
    <contour>
      <point x="218" y="205" type="curve" smooth="yes"/>
      <point x="160" y="205"/>
      <point x="120" y="159"/>
      <point x="120" y="116" type="curve" smooth="yes"/>
      <point x="120" y="64"/>
      <point x="158" y="23"/>
      <point x="218" y="23" type="curve" smooth="yes"/>
      <point x="277" y="23"/>
      <point x="315" y="64"/>
      <point x="315" y="116" type="curve" smooth="yes"/>
      <point x="315" y="160"/>
      <point x="277" y="205"/>
    </contour>
  </outline>
</glyph>
<glyph name="knI" format="1">
  <advance width="751"/>
  <unicode hex="0C87"/>
  <outline>
    <contour>
      <point x="607" y="-19" type="move"/>
      <point x="557" y="128"/>
      <point x="474" y="199"/>
      <point x="370" y="199" type="curve" smooth="yes"/>
      <point x="303" y="199"/>
      <point x="266" y="156"/>
      <point x="266" y="117" type="curve" smooth="yes"/>
      <point x="266" y="79"/>
      <point x="304" y="40"/>
      <point x="372" y="40" type="curve" smooth="yes"/>
      <point x="519" y="40"/>
      <point x="647" y="195"/>
      <point x="647" y="321" type="curve" smooth="yes"/>
      <point x="647" y="390"/>
      <point x="606" y="443"/>
      <point x="528" y="443" type="curve" smooth="yes"/>
      <point x="460" y="443"/>
      <point x="413" y="401"/>
      <point x="381" y="333" type="curve"/>
      <point x="376" y="333" type="line"/>
      <point x="345" y="400"/>
      <point x="303" y="444"/>
      <point x="222" y="444" type="curve" smooth="yes"/>
      <point x="146" y="444"/>
      <point x="107" y="390"/>
      <point x="107" y="339" type="curve" smooth="yes"/>
      <point x="107" y="301"/>
      <point x="124" y="273"/>
      <point x="143" y="246" type="curve"/>
    </contour>
  </outline>
</glyph>
<glyph name="knU" format="1">
  <advance width="987"/>
  <unicode hex="0C89"/>
  <outline>
    <contour>
      <point x="114" y="349" type="move"/>
      <point x="143" y="303"/>
      <point x="179" y="277"/>
      <point x="224" y="277" type="curve" smooth="yes"/>
      <point x="275" y="277"/>
      <point x="315" y="317"/>
      <point x="315" y="369" type="curve" smooth="yes"/>
      <point x="315" y="419"/>
      <point x="280" y="463"/>
      <point x="227" y="463" type="curve" smooth="yes"/>
      <point x="163" y="463"/>
      <point x="101" y="385"/>
      <point x="101" y="246" type="curve" smooth="yes"/>
      <point x="101" y="115"/>
      <point x="176" y="27"/>
      <point x="263" y="27" type="curve" smooth="yes"/>
      <point x="298" y="27"/>
      <point x="329" y="39"/>
      <point x="354" y="64" type="curve" smooth="yes"/>
      <point x="381" y="91"/>
      <point x="402" y="150"/>
      <point x="418" y="242" type="curve" smooth="yes"/>
      <point x="440" y="367"/>
      <point x="466" y="415"/>
      <point x="520" y="415" type="curve" smooth="yes"/>
      <point x="584" y="415"/>
      <point x="612" y="361"/>
      <point x="620" y="220" type="curve" smooth="yes"/>
      <point x="625" y="130"/>
      <point x="645" y="86"/>
      <point x="670" y="61" type="curve" smooth="yes"/>
      <point x="694" y="37"/>
      <point x="725" y="27"/>
      <point x="761" y="27" type="curve" smooth="yes"/>
      <point x="829" y="27"/>
      <point x="889" y="78"/>
      <point x="889" y="179" type="curve" smooth="yes"/>
      <point x="889" y="279"/>
      <point x="838" y="373"/>
      <point x="773" y="437" type="curve"/>
    </contour>
  </outline>
</glyph>
<glyph name="knE" format="1">
  <advance width="741"/>
  <unicode hex="0C8E"/>
  <outline>
    <contour>
      <point x="173" y="233" type="move"/>
      <point x="128" y="215"/>
      <point x="97" y="173"/>
      <point x="97" y="125" type="curve" smooth="yes"/>
      <point x="97" y="74"/>
      <point x="137" y="23"/>
      <point x="214" y="23" type="curve" smooth="yes"/>
      <point x="281" y="23"/>
      <point x="329" y="52"/>
      <point x="366" y="128" type="curve"/>
      <point x="371" y="128" type="line"/>
      <point x="412" y="49"/>
      <point x="452" y="27"/>
      <point x="514" y="27" type="curve" smooth="yes"/>
      <point x="587" y="27"/>
      <point x="648" y="78"/>
      <point x="647" y="172" type="curve" smooth="yes"/>
      <point x="646" y="272"/>
      <point x="563" y="400"/>
      <point x="394" y="463" type="curve"/>
    </contour>
  </outline>
</glyph>
<glyph name="knEe" format="1">
  <advance width="741"/>
  <unicode hex="0C8F"/>
  <outline>
    <contour>
      <point x="170" y="480" type="move"/>
      <point x="191" y="416"/>
      <point x="226" y="368"/>
      <point x="286" y="368" type="curve" smooth="yes"/>
      <point x="343" y="368"/>
      <point x="373" y="412"/>
      <point x="389" y="457" type="curve"/>
    </contour>
    <contour>
      <point x="143" y="225" type="move"/>
      <point x="114" y="201"/>
      <point x="97" y="168"/>
      <point x="97" y="127" type="curve" smooth="yes"/>
      <point x="97" y="79"/>
      <point x="133" y="21"/>
      <point x="214" y="21" type="curve" smooth="yes"/>
      <point x="283" y="21"/>
      <point x="332" y="65"/>
      <point x="368" y="147" type="curve"/>
      <point x="370" y="147" type="line"/>
      <point x="407" y="65"/>
      <point x="453" y="27"/>
      <point x="519" y="27" type="curve" smooth="yes"/>
      <point x="587" y="27"/>
      <point x="647" y="78"/>
      <point x="647" y="179" type="curve" smooth="yes"/>
      <point x="647" y="296"/>
      <point x="551" y="409"/>
      <point x="393" y="464" type="curve"/>
    </contour>
  </outline>
</glyph>
<glyph name="knAi" format="1">
  <advance width="741"/>
  <unicode hex="0C90"/>
  <outline>
    <contour>
      <point x="143" y="225" type="move"/>
      <point x="114" y="201"/>
      <point x="97" y="168"/>
      <point x="97" y="127" type="curve" smooth="yes"/>
      <point x="97" y="79"/>
      <point x="133" y="21"/>
      <point x="214" y="21" type="curve" smooth="yes"/>
      <point x="283" y="21"/>
      <point x="332" y="65"/>
      <point x="368" y="147" type="curve"/>
      <point x="370" y="147" type="line"/>
      <point x="407" y="65"/>
      <point x="453" y="27"/>
      <point x="519" y="27" type="curve" smooth="yes"/>
      <point x="605" y="27"/>
      <point x="654" y="88"/>
      <point x="654" y="213" type="curve" smooth="yes"/>
      <point x="654" y="382"/>
      <point x="576" y="455"/>
      <point x="504" y="455" type="curve" smooth="yes"/>
      <point x="449" y="455"/>
      <point x="408" y="420"/>
      <point x="362" y="342" type="curve"/>
      <point x="361" y="342" type="line"/>
      <point x="317" y="419"/>
      <point x="266" y="453"/>
      <point x="208" y="453" type="curve" smooth="yes"/>
      <point x="148" y="453"/>
      <point x="102" y="411"/>
      <point x="85" y="342" type="curve"/>
    </contour>
  </outline>
</glyph>
<glyph name="knO" format="1">
  <advance width="775"/>
  <unicode hex="0C92"/>
  <outline>
    <contour>
      <point x="115" y="413" type="move"/>
      <point x="142" y="441"/>
      <point x="176" y="463"/>
      <point x="215" y="463" type="curve" smooth="yes"/>
      <point x="267" y="463"/>
      <point x="300" y="426"/>
      <point x="300" y="382" type="curve" smooth="yes"/>
      <point x="300" y="342"/>
      <point x="275" y="313"/>
      <point x="215" y="270" type="curve" smooth="yes"/>
      <point x="148" y="222"/>
      <point x="118" y="181"/>
      <point x="118" y="131" type="curve" smooth="yes"/>
      <point x="118" y="69"/>
      <point x="162" y="21"/>
      <point x="230" y="21" type="curve" smooth="yes"/>
      <point x="306" y="21"/>
      <point x="354" y="51"/>
      <point x="392" y="128" type="curve"/>
      <point x="397" y="128" type="line"/>
      <point x="442" y="52"/>
      <point x="483" y="27"/>
      <point x="551" y="27" type="curve" smooth="yes"/>
      <point x="625" y="27"/>
      <point x="672" y="80"/>
      <point x="672" y="146" type="curve" smooth="yes"/>
      <point x="672" y="178"/>
      <point x="667" y="201"/>
      <point x="655" y="232" type="curve"/>
    </contour>
  </outline>
</glyph>
<glyph name="knOo" format="1">
  <advance width="775"/>
  <unicode hex="0C93"/>
  <outline>
    <contour>
      <point x="377" y="598" type="move"/>
      <point x="362" y="605"/>
      <point x="343" y="611"/>
      <point x="318" y="611" type="curve" smooth="yes"/>
      <point x="271" y="611"/>
      <point x="239" y="576"/>
      <point x="239" y="531" type="curve" smooth="yes"/>
      <point x="239" y="505"/>
      <point x="245" y="479"/>
      <point x="249" y="463" type="curve"/>
    </contour>
    <component base="knO"/>
  </outline>
</glyph>
<glyph name="knKa" format="1">
  <advance width="756"/>
  <unicode hex="0C95"/>
  <outline>
    <contour>
      <point x="111" y="437" type="move"/>
      <point x="497" y="437" type="line" smooth="yes"/>
      <point x="570" y="437"/>
      <point x="613" y="463"/>
      <point x="645" y="515" type="curve"/>
    </contour>
    <contour>
      <point x="107" y="282" type="move"/>
      <point x="628" y="282" type="line" smooth="yes"/>
    </contour>
    <contour>
      <point x="369" y="285" type="move"/>
      <point x="369" y="409" type="line" smooth="yes"/>
    </contour>
    <contour>
      <point x="294" y="280" type="move"/>
      <point x="245" y="264"/>
      <point x="184" y="213"/>
      <point x="185" y="144" type="curve" smooth="yes"/>
      <point x="186" y="77"/>
      <point x="232" y="10"/>
      <point x="370" y="10" type="curve" smooth="yes"/>
      <point x="510" y="10"/>
      <point x="554" y="78"/>
      <point x="554" y="144" type="curve" smooth="yes"/>
      <point x="554" y="214"/>
      <point x="496" y="262"/>
      <point x="439" y="280" type="curve"/>
    </contour>
  </outline>
</glyph>
<glyph name="knKa" format="1">
  <advance width="756"/>
  <unicode hex="0C95"/>
  <outline>
    <contour>
      <point x="111.28" y="437" type="move"/>
      <point x="497.28" y="437" type="line" smooth="yes"/>
      <point x="570.28" y="437"/>
      <point x="613.28" y="463"/>
      <point x="645.28" y="515" type="curve" smooth="yes"/>
      <point x="671.28" y="558"/>
    </contour>
    <contour>
      <point x="107.28" y="282" type="move"/>
      <point x="628.28" y="282" type="line" smooth="yes"/>
    </contour>
    <contour>
      <point x="369.28" y="285" type="move"/>
      <point x="369.28" y="409" type="line" smooth="yes"/>
    </contour>
    <contour>
      <point x="287.28" y="280" type="move"/>
      <point x="236.28" y="264"/>
      <point x="173.28" y="213"/>
      <point x="174.28" y="144" type="curve" smooth="yes"/>
      <point x="175.28" y="77"/>
      <point x="223.28" y="10"/>
      <point x="367.28" y="10" type="curve" smooth="yes"/>
      <point x="514.28" y="10"/>
      <point x="559.28" y="78"/>
      <point x="559.28" y="144" type="curve" smooth="yes"/>
      <point x="559.28" y="214"/>
      <point x="505.28" y="267"/>
      <point x="439.28" y="280" type="curve"/>
    </contour>
  </outline>
</glyph>
<glyph name="knKha" format="1">
  <advance width="816"/>
  <unicode hex="0C96"/>
  <outline>
    <contour>
      <point x="334" y="438" type="move"/>
      <point x="318" y="363"/>
      <point x="274" y="307"/>
      <point x="209" y="307" type="curve" smooth="yes"/>
      <point x="156" y="307"/>
      <point x="121" y="338"/>
      <point x="121" y="383" type="curve" smooth="yes"/>
      <point x="121" y="420"/>
      <point x="154" y="463"/>
      <point x="227" y="463" type="curve" smooth="yes"/>
      <point x="361" y="463"/>
      <point x="441" y="364"/>
      <point x="441" y="262" type="curve" smooth="yes"/>
      <point x="441" y="196"/>
      <point x="414" y="131"/>
      <point x="367" y="84" type="curve" smooth="yes"/>
      <point x="329" y="46"/>
      <point x="281" y="23"/>
      <point x="213" y="23" type="curve" smooth="yes"/>
      <point x="129" y="23"/>
      <point x="92" y="66"/>
      <point x="92" y="109" type="curve" smooth="yes"/>
      <point x="92" y="153"/>
      <point x="128" y="196"/>
      <point x="201" y="196" type="curve" smooth="yes"/>
      <point x="266" y="196"/>
      <point x="322" y="168"/>
      <point x="373" y="129" type="curve" smooth="yes"/>
      <point x="435" y="81"/>
      <point x="506" y="27"/>
      <point x="578" y="27" type="curve" smooth="yes"/>
      <point x="646" y="27"/>
      <point x="706" y="78"/>
      <point x="706" y="179" type="curve" smooth="yes"/>
      <point x="706" y="279"/>
      <point x="655" y="373"/>
      <point x="590" y="437" type="curve"/>
    </contour>
  </outline>
</glyph>
<glyph name="knKha" format="1">
  <advance width="791"/>
  <unicode hex="0C96"/>
  <outline>
    <contour>
      <point x="296" y="438" type="move"/>
      <point x="302" y="423"/>
      <point x="310" y="401"/>
      <point x="310" y="377" type="curve" smooth="yes"/>
      <point x="310" y="327"/>
      <point x="273" y="292"/>
      <point x="215" y="292" type="curve" smooth="yes"/>
      <point x="169" y="292"/>
      <point x="133" y="326"/>
      <point x="133" y="369" type="curve" smooth="yes"/>
      <point x="133" y="408"/>
      <point x="164" y="451"/>
      <point x="230" y="451" type="curve" smooth="yes"/>
      <point x="355" y="451"/>
      <point x="441" y="357"/>
      <point x="441" y="242" type="curve" smooth="yes"/>
      <point x="441" y="145"/>
      <point x="364" y="23"/>
      <point x="230" y="23" type="curve" smooth="yes"/>
      <point x="152" y="23"/>
      <point x="122" y="63"/>
      <point x="122" y="101" type="curve" smooth="yes"/>
      <point x="122" y="136"/>
      <point x="156" y="179"/>
      <point x="219" y="179" type="curve" smooth="yes"/>
      <point x="284" y="179"/>
      <point x="346" y="146"/>
      <point x="401" y="100" type="curve" smooth="yes"/>
      <point x="461" y="49"/>
      <point x="514" y="27"/>
      <point x="578" y="27" type="curve" smooth="yes"/>
      <point x="650" y="27"/>
      <point x="706" y="78"/>
      <point x="706" y="179" type="curve" smooth="yes"/>
      <point x="706" y="279"/>
      <point x="655" y="373"/>
      <point x="590" y="437" type="curve"/>
    </contour>
  </outline>
</glyph>
<glyph name="knGa" format="1">
  <advance width="689"/>
  <unicode hex="0C97"/>
  <outline>
    <contour>
      <point x="99" y="437" type="move"/>
      <point x="460" y="437" type="line" smooth="yes"/>
      <point x="533" y="437"/>
      <point x="576" y="463"/>
      <point x="608" y="515" type="curve"/>
    </contour>
    <contour>
      <point x="512" y="27" type="move"/>
      <point x="534" y="73"/>
      <point x="551" y="118"/>
      <point x="551" y="180" type="curve" smooth="yes"/>
      <point x="551" y="273"/>
      <point x="493" y="379"/>
      <point x="368" y="437" type="curve"/>
    </contour>
    <contour>
      <point x="310" y="437" type="move"/>
      <point x="187" y="380"/>
      <point x="134" y="274"/>
      <point x="134" y="180" type="curve" smooth="yes"/>
      <point x="134" y="119"/>
      <point x="150" y="71"/>
      <point x="173" y="27" type="curve"/>
    </contour>
  </outline>
</glyph>
<glyph name="knGa" format="1">
  <advance width="689"/>
  <unicode hex="0C97"/>
  <outline>
    <contour>
      <point x="98.6" y="437" type="move"/>
      <point x="459.6" y="437" type="line" smooth="yes"/>
      <point x="532.6" y="437"/>
      <point x="576" y="463"/>
      <point x="608" y="515" type="curve"/>
    </contour>
    <contour>
      <point x="511.6" y="27" type="move"/>
      <point x="533.6" y="73"/>
      <point x="547" y="118"/>
      <point x="547" y="180" type="curve" smooth="yes"/>
      <point x="547" y="273"/>
      <point x="483" y="379"/>
      <point x="358" y="437" type="curve"/>
    </contour>
    <contour>
      <point x="320" y="437" type="move"/>
      <point x="197" y="380"/>
      <point x="138" y="274"/>
      <point x="138" y="180" type="curve" smooth="yes"/>
      <point x="138" y="119"/>
      <point x="149.6" y="71"/>
      <point x="172.6" y="27" type="curve"/>
    </contour>
  </outline>
</glyph>
<glyph name="knGha" format="1">
  <advance width="833"/>
  <unicode hex="0C98"/>
  <outline>
    <contour>
      <point x="704" y="362" type="move"/>
      <point x="720" y="343"/>
      <point x="733" y="320"/>
      <point x="733" y="287" type="curve" smooth="yes"/>
      <point x="733" y="249"/>
      <point x="705" y="214"/>
      <point x="661" y="214" type="curve" smooth="yes"/>
      <point x="635" y="214"/>
      <point x="606" y="223"/>
      <point x="582" y="237" type="curve"/>
    </contour>
    <component base="knPha"/>
  </outline>
</glyph>
<glyph name="knNga" format="1">
  <advance width="775"/>
  <unicode hex="0C99"/>
  <outline>
    <contour>
      <point x="269" y="343" type="move"/>
      <point x="358" y="463"/>
      <point x="415" y="505"/>
      <point x="485" y="505" type="curve" smooth="yes"/>
      <point x="555" y="505"/>
      <point x="605" y="466"/>
      <point x="649" y="397" type="curve"/>
    </contour>
    <contour>
      <point x="459" y="379" type="curve" smooth="yes"/>
      <point x="425" y="379"/>
      <point x="398" y="351"/>
      <point x="398" y="318" type="curve" smooth="yes"/>
      <point x="398" y="285"/>
      <point x="425" y="257"/>
      <point x="460" y="257" type="curve" smooth="yes"/>
      <point x="499" y="257"/>
      <point x="523" y="285"/>
      <point x="523" y="318" type="curve" smooth="yes"/>
      <point x="523" y="351"/>
      <point x="499" y="379"/>
    </contour>
    <component base="knO"/>
  </outline>
</glyph>
<glyph name="knNga" format="1">
  <advance width="775"/>
  <unicode hex="0C99"/>
  <outline>
    <contour>
      <point x="87.6278507605" y="421" type="move"/>
      <point x="112.62785076" y="445"/>
      <point x="155.62785076" y="463"/>
      <point x="193.62785076" y="463" type="curve" smooth="yes"/>
      <point x="249.62785076" y="463"/>
      <point x="277.62785076" y="424"/>
      <point x="277.62785076" y="381" type="curve" smooth="yes"/>
      <point x="277.62785076" y="346"/>
      <point x="246.62785076" y="307"/>
      <point x="192.62785076" y="255" type="curve" smooth="yes"/>
      <point x="146.62785076" y="210"/>
      <point x="117.62785076" y="164"/>
      <point x="117.62785076" y="123" type="curve" smooth="yes"/>
      <point x="117.62785076" y="69"/>
      <point x="150.62785076" y="21"/>
      <point x="222.62785076" y="21" type="curve" smooth="yes"/>
      <point x="307.62785076" y="21"/>
      <point x="352.62785076" y="64"/>
      <point x="394.62785076" y="147" type="curve"/>
      <point x="396.62785076" y="147" type="line"/>
      <point x="433.62785076" y="65"/>
      <point x="482.62785076" y="27"/>
      <point x="548.62785076" y="27" type="curve" smooth="yes"/>
      <point x="626.62785076" y="27"/>
      <point x="677.62785076" y="84"/>
      <point x="677.62785076" y="154" type="curve" smooth="yes"/>
      <point x="677.62785076" y="188"/>
      <point x="667.62785076" y="228"/>
      <point x="656.62785076" y="253" type="curve"/>
    </contour>
    <contour>
      <point x="240.62785076" y="303" type="move"/>
      <point x="338.62785076" y="452"/>
      <point x="409.62785076" y="505"/>
      <point x="484.62785076" y="505" type="curve" smooth="yes"/>
      <point x="555.62785076" y="505"/>
      <point x="604.62785076" y="466"/>
      <point x="648.62785076" y="397" type="curve" smooth="yes"/>
      <point x="673.62785076" y="358"/>
    </contour>
    <contour>
      <point x="399.62785076" y="440" type="curve" smooth="yes"/>
      <point x="337.62785076" y="440"/>
      <point x="304.62785076" y="395"/>
      <point x="304.62785076" y="354" type="curve" smooth="yes"/>
      <point x="304.62785076" y="311"/>
      <point x="337.62785076" y="267"/>
      <point x="398.62785076" y="267" type="curve" smooth="yes"/>
      <point x="458.62785076" y="267"/>
      <point x="490.62785076" y="308"/>
      <point x="490.62785076" y="355" type="curve" smooth="yes"/>
      <point x="490.62785076" y="392"/>
      <point x="457.62785076" y="440"/>
    </contour>
  </outline>
</glyph>
<glyph name="knCa" format="1">
  <advance width="878"/>
  <unicode hex="0C9A"/>
  <outline>
    <contour>
      <point x="457.62785076" y="279" type="move"/>
      <point x="746.62785076" y="279" type="line"/>
    </contour>
    <contour>
      <point x="459.62785076" y="437" type="move"/>
      <point x="616.62785076" y="437" type="line" smooth="yes"/>
      <point x="689.62785076" y="437"/>
      <point x="732.62785076" y="463"/>
      <point x="764.62785076" y="515" type="curve" smooth="yes"/>
      <point x="790.62785076" y="558"/>
    </contour>
    <contour>
      <point x="607.62785076" y="285" type="move"/>
      <point x="607.62785076" y="409" type="line" smooth="yes"/>
    </contour>
    <component base="knO"/>
  </outline>
</glyph>
<glyph name="knJa" format="1">
  <advance width="775"/>
  <unicode hex="0C9C"/>
  <outline>
    <contour>
      <point x="87.6278507605" y="421" type="move"/>
      <point x="112.62785076" y="445"/>
      <point x="155.62785076" y="463"/>
      <point x="193.62785076" y="463" type="curve" smooth="yes"/>
      <point x="249.62785076" y="463"/>
      <point x="277.62785076" y="424"/>
      <point x="277.62785076" y="381" type="curve" smooth="yes"/>
      <point x="277.62785076" y="346"/>
      <point x="246.62785076" y="307"/>
      <point x="192.62785076" y="255" type="curve" smooth="yes"/>
      <point x="146.62785076" y="210"/>
      <point x="117.62785076" y="164"/>
      <point x="117.62785076" y="123" type="curve" smooth="yes"/>
      <point x="117.62785076" y="69"/>
      <point x="150.62785076" y="21"/>
      <point x="222.62785076" y="21" type="curve" smooth="yes"/>
      <point x="307.62785076" y="21"/>
      <point x="352.62785076" y="64"/>
      <point x="394.62785076" y="147" type="curve"/>
      <point x="396.62785076" y="147" type="line"/>
      <point x="433.62785076" y="65"/>
      <point x="482.62785076" y="27"/>
      <point x="548.62785076" y="27" type="curve" smooth="yes"/>
      <point x="626.62785076" y="27"/>
      <point x="677.62785076" y="84"/>
      <point x="677.62785076" y="154" type="curve" smooth="yes"/>
      <point x="677.62785076" y="188"/>
      <point x="667.62785076" y="228"/>
      <point x="656.62785076" y="253" type="curve"/>
    </contour>
    <contour>
      <point x="615.62785076" y="419" type="move" smooth="yes"/>
      <point x="574.62785076" y="350"/>
      <point x="525.62785076" y="311"/>
      <point x="454.62785076" y="311" type="curve" smooth="yes"/>
      <point x="379.62785076" y="311"/>
      <point x="330.62785076" y="344"/>
      <point x="261.62785076" y="432" type="curve"/>
    </contour>
  </outline>
</glyph>
<glyph name="knJha" format="1">
  <advance width="1274"/>
  <unicode hex="0C9D"/>
  <outline>
    <contour>
      <point x="112.24" y="437" type="move"/>
      <point x="444.24" y="437" type="line" smooth="yes"/>
      <point x="517.24" y="437"/>
      <point x="560.24" y="463"/>
      <point x="592.24" y="515" type="curve" smooth="yes"/>
      <point x="618.24" y="558"/>
    </contour>
    <contour>
      <point x="230.24" y="437"/>
      <point x="129.24" y="330"/>
      <point x="129.24" y="222" type="curve" smooth="yes"/>
      <point x="129.24" y="103"/>
      <point x="218.24" y="14"/>
      <point x="335.24" y="14" type="curve" smooth="yes"/>
      <point x="457.24" y="14"/>
      <point x="540.24" y="105"/>
      <point x="540.24" y="222" type="curve" smooth="yes"/>
      <point x="540.24" y="328"/>
      <point x="441.24" y="437"/>
      <point x="335.24" y="437" type="curve" smooth="yes"/>
    </contour>
    <contour>
      <point x="831" y="-89" type="move"/>
      <point x="831" y="-192" type="line"/>
    </contour>
    <component base="knUsign" xOffset="907" yOffset="-7"/>
    <component base="knUsign" xOffset="598" yOffset="-11"/>
  </outline>
</glyph>
<glyph name="knNya" format="1">
  <advance width="940"/>
  <unicode hex="0C9E"/>
  <outline>
    <contour>
      <point x="615" y="376" type="move"/>
      <point x="651" y="415"/>
      <point x="699" y="449"/>
      <point x="752" y="449" type="curve" smooth="yes"/>
      <point x="821" y="449"/>
      <point x="850" y="395"/>
      <point x="850" y="348" type="curve" smooth="yes"/>
      <point x="850" y="322"/>
      <point x="843" y="298"/>
      <point x="833" y="267" type="curve"/>
    </contour>
    <component base="knI" xOffset="-27"/>
  </outline>
</glyph>
<glyph name="knTta" format="1">
  <advance width="786"/>
  <unicode hex="0C9F"/>
  <outline>
    <contour>
      <point x="573" y="247" type="move"/>
      <point x="637" y="247"/>
      <point x="670" y="281"/>
      <point x="670" y="334" type="curve" smooth="yes"/>
      <point x="670" y="374"/>
      <point x="648" y="420"/>
      <point x="612" y="463" type="curve"/>
    </contour>
    <contour>
      <point x="275" y="447" type="move"/>
      <point x="264" y="450"/>
      <point x="253" y="452"/>
      <point x="235" y="452" type="curve" smooth="yes"/>
      <point x="176" y="452"/>
      <point x="133" y="411"/>
      <point x="133" y="358" type="curve" smooth="yes"/>
      <point x="133" y="302"/>
      <point x="180" y="262"/>
      <point x="254" y="251" type="curve"/>
    </contour>
    <contour>
      <point x="261" y="249" type="move"/>
      <point x="250" y="249"/>
      <point x="261" y="249"/>
      <point x="255" y="249" type="curve" smooth="yes"/>
      <point x="163" y="247"/>
      <point x="122" y="193"/>
      <point x="122" y="136" type="curve" smooth="yes"/>
      <point x="122" y="74"/>
      <point x="168" y="27"/>
      <point x="245" y="27" type="curve" smooth="yes"/>
      <point x="320" y="27"/>
      <point x="364" y="57"/>
      <point x="399" y="128" type="curve"/>
      <point x="404" y="128" type="line"/>
      <point x="442" y="57"/>
      <point x="497" y="27"/>
      <point x="566" y="27" type="curve" smooth="yes"/>
      <point x="642" y="27"/>
      <point x="689" y="76"/>
      <point x="689" y="137" type="curve" smooth="yes"/>
      <point x="689" y="196"/>
      <point x="641" y="248"/>
      <point x="546" y="248" type="curve" smooth="yes"/>
      <point x="540" y="248"/>
      <point x="550" y="248"/>
      <point x="539" y="248" type="curve"/>
    </contour>
  </outline>
</glyph>
<glyph name="knTtha" format="1">
  <advance width="691"/>
  <unicode hex="0CA0"/>
  <outline>
    <contour>
      <point x="98" y="437" type="move"/>
      <point x="463" y="437" type="line" smooth="yes"/>
      <point x="536" y="437"/>
      <point x="579" y="463"/>
      <point x="611" y="515" type="curve"/>
    </contour>
    <contour>
      <point x="206" y="437"/>
      <point x="114" y="332"/>
      <point x="114" y="224" type="curve" smooth="yes"/>
      <point x="114" y="108"/>
      <point x="201" y="17"/>
      <point x="338" y="17" type="curve" smooth="yes"/>
      <point x="477" y="17"/>
      <point x="561" y="110"/>
      <point x="561" y="224" type="curve" smooth="yes"/>
      <point x="561" y="330"/>
      <point x="472" y="437"/>
      <point x="338" y="437" type="curve" smooth="yes"/>
    </contour>
    <contour>
      <point x="336" y="297" type="curve" smooth="yes"/>
      <point x="298" y="297"/>
      <point x="270" y="264"/>
      <point x="270" y="233" type="curve" smooth="yes"/>
      <point x="270" y="196"/>
      <point x="298" y="167"/>
      <point x="336" y="167" type="curve" smooth="yes"/>
      <point x="375" y="167"/>
      <point x="402" y="195"/>
      <point x="402" y="232" type="curve" smooth="yes"/>
      <point x="402" y="264"/>
      <point x="375" y="297"/>
    </contour>
  </outline>
</glyph>
<glyph name="knTtha" format="1">
  <advance width="691"/>
  <unicode hex="0CA0"/>
  <outline>
    <contour>
      <point x="98.12" y="437" type="move"/>
      <point x="463.12" y="437" type="line" smooth="yes"/>
      <point x="536.12" y="437"/>
      <point x="579.12" y="463"/>
      <point x="611.12" y="515" type="curve" smooth="yes"/>
      <point x="637.12" y="558"/>
    </contour>
    <contour>
      <point x="206.12" y="437"/>
      <point x="114.12" y="330"/>
      <point x="114.12" y="222" type="curve" smooth="yes"/>
      <point x="114.12" y="103"/>
      <point x="201.12" y="14"/>
      <point x="338.12" y="14" type="curve" smooth="yes"/>
      <point x="477.12" y="14"/>
      <point x="561.12" y="105"/>
      <point x="561.12" y="222" type="curve" smooth="yes"/>
      <point x="561.12" y="328"/>
      <point x="472.12" y="437"/>
      <point x="338.12" y="437" type="curve" smooth="yes"/>
    </contour>
    <contour>
      <point x="339.12" y="289" type="curve" smooth="yes"/>
      <point x="304.12" y="289"/>
      <point x="276.12" y="259"/>
      <point x="276.12" y="230" type="curve" smooth="yes"/>
      <point x="276.12" y="195"/>
      <point x="302.12" y="167"/>
      <point x="338.12" y="167" type="curve" smooth="yes"/>
      <point x="374.12" y="167"/>
      <point x="400.12" y="195"/>
      <point x="400.12" y="230" type="curve" smooth="yes"/>
      <point x="400.12" y="260"/>
      <point x="375.12" y="289"/>
    </contour>
  </outline>
</glyph>
<glyph name="knDda" format="1">
  <advance width="752"/>
  <unicode hex="0CA1"/>
  <outline>
    <contour>
      <point x="100" y="437" type="move"/>
      <point x="520" y="437" type="line" smooth="yes"/>
      <point x="593" y="437"/>
      <point x="636" y="463"/>
      <point x="668" y="515" type="curve"/>
    </contour>
    <contour>
      <point x="291" y="437" type="move"/>
      <point x="167" y="382"/>
      <point x="98" y="270"/>
      <point x="98" y="168" type="curve" smooth="yes"/>
      <point x="98" y="78"/>
      <point x="157" y="27"/>
      <point x="225" y="27" type="curve" smooth="yes"/>
      <point x="290" y="27"/>
      <point x="330" y="50"/>
      <point x="366" y="128" type="curve"/>
      <point x="371" y="128" type="line"/>
      <point x="409" y="53"/>
      <point x="466" y="27"/>
      <point x="519" y="27" type="curve" smooth="yes"/>
      <point x="596" y="27"/>
      <point x="644" y="80"/>
      <point x="644" y="151" type="curve" smooth="yes"/>
      <point x="644" y="227"/>
      <point x="585" y="324"/>
      <point x="512" y="324" type="curve" smooth="yes"/>
      <point x="454" y="324"/>
      <point x="430" y="287"/>
      <point x="430" y="250" type="curve" smooth="yes"/>
      <point x="430" y="214"/>
      <point x="460" y="179"/>
      <point x="507" y="179" type="curve" smooth="yes"/>
      <point x="565" y="179"/>
      <point x="590" y="223"/>
      <point x="590" y="270" type="curve" smooth="yes"/>
      <point x="590" y="313"/>
      <point x="527" y="387"/>
      <point x="425" y="437" type="curve"/>
    </contour>
  </outline>
</glyph>
<glyph name="knDda" format="1">
  <advance width="745"/>
  <unicode hex="0CA1"/>
  <outline>
    <contour>
      <point x="93" y="437" type="move"/>
      <point x="513" y="437" type="line" smooth="yes"/>
      <point x="586" y="437"/>
      <point x="629" y="463"/>
      <point x="661" y="515" type="curve"/>
    </contour>
    <contour>
      <point x="284" y="437" type="move"/>
      <point x="160" y="382"/>
      <point x="91" y="270"/>
      <point x="91" y="168" type="curve" smooth="yes"/>
      <point x="91" y="78"/>
      <point x="150" y="27"/>
      <point x="218" y="27" type="curve" smooth="yes"/>
      <point x="283" y="27"/>
      <point x="323" y="60"/>
      <point x="359" y="128" type="curve"/>
      <point x="364" y="128" type="line"/>
      <point x="402" y="58"/>
      <point x="462" y="27"/>
      <point x="518" y="27" type="curve" smooth="yes"/>
      <point x="609" y="27"/>
      <point x="653" y="85"/>
      <point x="653" y="157" type="curve" smooth="yes"/>
      <point x="653" y="241"/>
      <point x="592" y="348"/>
      <point x="443" y="437" type="curve"/>
    </contour>
    <contour>
      <point x="514" y="332" type="curve" smooth="yes"/>
      <point x="468" y="332"/>
      <point x="435" y="299"/>
      <point x="435" y="256" type="curve" smooth="yes"/>
      <point x="435" y="215"/>
      <point x="467" y="182"/>
      <point x="515" y="182" type="curve" smooth="yes"/>
      <point x="563" y="182"/>
      <point x="594" y="214"/>
      <point x="594" y="257" type="curve" smooth="yes"/>
      <point x="594" y="299"/>
      <point x="563" y="332"/>
    </contour>
  </outline>
</glyph>
<glyph name="knDdha" format="1">
  <advance width="752"/>
  <unicode hex="0CA2"/>
  <outline>
    <contour>
      <point x="369" y="-89" type="move"/>
      <point x="369" y="-192" type="line"/>
    </contour>
    <component base="knDda"/>
    <component base="knDda"/>
  </outline>
</glyph>
<glyph name="knNna" format="1">
  <advance width="797"/>
  <unicode hex="0CA3"/>
  <outline>
    <contour>
      <point x="226" y="237" type="move"/>
      <point x="163" y="239"/>
      <point x="99" y="201"/>
      <point x="99" y="133" type="curve" smooth="yes"/>
      <point x="99" y="70"/>
      <point x="145" y="28"/>
      <point x="223" y="28" type="curve" smooth="yes"/>
      <point x="252" y="28"/>
      <point x="274" y="32"/>
      <point x="292" y="37" type="curve"/>
    </contour>
    <contour>
      <point x="689" y="148" type="move"/>
      <point x="661" y="179"/>
      <point x="628" y="204"/>
      <point x="578" y="204" type="curve" smooth="yes"/>
      <point x="516" y="204"/>
      <point x="481" y="159"/>
      <point x="481" y="112" type="curve" smooth="yes"/>
      <point x="481" y="60"/>
      <point x="522" y="23"/>
      <point x="573" y="23" type="curve" smooth="yes"/>
      <point x="650" y="23"/>
      <point x="701" y="87"/>
      <point x="700" y="230" type="curve" smooth="yes"/>
      <point x="699" y="379"/>
      <point x="642" y="452"/>
      <point x="548" y="452" type="curve" smooth="yes"/>
      <point x="488" y="452"/>
      <point x="444" y="412"/>
      <point x="400" y="349" type="curve"/>
      <point x="396" y="349" type="line"/>
      <point x="352" y="407"/>
      <point x="310" y="450"/>
      <point x="234" y="450" type="curve" smooth="yes"/>
      <point x="154" y="450"/>
      <point x="111" y="399"/>
      <point x="111" y="344" type="curve" smooth="yes"/>
      <point x="111" y="285"/>
      <point x="160" y="237"/>
      <point x="239" y="237" type="curve" smooth="yes"/>
      <point x="243" y="237"/>
      <point x="245" y="237"/>
      <point x="249" y="237" type="curve"/>
    </contour>
  </outline>
</glyph>
<glyph name="knTa" format="1">
  <advance width="738"/>
  <unicode hex="0CA4"/>
  <outline>
    <contour>
      <point x="140.718315449" y="437" type="move"/>
      <point x="493.718315449" y="437" type="line" smooth="yes"/>
      <point x="566.718315449" y="437"/>
      <point x="609.718315449" y="463"/>
      <point x="641.718315449" y="515" type="curve" smooth="yes"/>
      <point x="667.718315449" y="558"/>
    </contour>
    <contour>
      <point x="126" y="76" type="move"/>
      <point x="193" y="36"/>
      <point x="276" y="11"/>
      <point x="387" y="11" type="curve" smooth="yes"/>
      <point x="567" y="11"/>
      <point x="640" y="79"/>
      <point x="640" y="162" type="curve" smooth="yes"/>
      <point x="640" y="254"/>
      <point x="548" y="308"/>
      <point x="390" y="308" type="curve" smooth="yes"/>
      <point x="306" y="308"/>
      <point x="264" y="276"/>
      <point x="264" y="240" type="curve" smooth="yes"/>
      <point x="264" y="205"/>
      <point x="298" y="177"/>
      <point x="360" y="176" type="curve" smooth="yes"/>
      <point x="450" y="175"/>
      <point x="493" y="232"/>
      <point x="493" y="286" type="curve" smooth="yes"/>
      <point x="493" y="332"/>
      <point x="480" y="392"/>
      <point x="459" y="437" type="curve"/>
    </contour>
  </outline>
</glyph>
<glyph name="knTha" format="1">
  <advance width="741"/>
  <unicode hex="0CA5"/>
  <outline>
    <contour>
      <point x="99.84" y="437" type="move"/>
      <point x="510.84" y="437" type="line" smooth="yes"/>
      <point x="583.84" y="437"/>
      <point x="626.84" y="463"/>
      <point x="658.84" y="515" type="curve" smooth="yes"/>
      <point x="684.84" y="558"/>
    </contour>
    <contour>
      <point x="290.84" y="437" type="move"/>
      <point x="166.84" y="382"/>
      <point x="104.84" y="274"/>
      <point x="104.84" y="172" type="curve" smooth="yes"/>
      <point x="104.84" y="82"/>
      <point x="156.84" y="27"/>
      <point x="222.84" y="27" type="curve" smooth="yes"/>
      <point x="284.84" y="27"/>
      <point x="336.84" y="69"/>
      <point x="366.84" y="158" type="curve"/>
      <point x="367.84" y="158" type="line"/>
      <point x="404.84" y="70"/>
      <point x="441.84" y="27"/>
      <point x="507.84" y="27" type="curve" smooth="yes"/>
      <point x="575.84" y="27"/>
      <point x="631.84" y="80"/>
      <point x="631.84" y="172" type="curve" smooth="yes"/>
      <point x="631.84" y="273"/>
      <point x="565.84" y="381"/>
      <point x="438.84" y="437" type="curve"/>
    </contour>
  </outline>
</glyph>
<glyph name="knDa" format="1">
  <advance width="709"/>
  <unicode hex="0CA6"/>
  <outline>
    <contour>
      <point x="91" y="437" type="move"/>
      <point x="494" y="437" type="line" smooth="yes"/>
      <point x="567" y="437"/>
      <point x="610" y="463"/>
      <point x="642" y="515" type="curve" smooth="yes"/>
      <point x="668" y="558"/>
    </contour>
    <contour>
      <point x="298" y="437" type="move"/>
      <point x="174" y="382"/>
      <point x="86" y="274"/>
      <point x="86" y="172" type="curve" smooth="yes"/>
      <point x="86" y="80"/>
      <point x="138" y="27"/>
      <point x="211" y="27" type="curve" smooth="yes"/>
      <point x="276" y="27"/>
      <point x="315" y="61"/>
      <point x="350" y="128" type="curve"/>
      <point x="355" y="128" type="line"/>
      <point x="393" y="58"/>
      <point x="430" y="27"/>
      <point x="499" y="27" type="curve" smooth="yes"/>
      <point x="571" y="27"/>
      <point x="625" y="80"/>
      <point x="625" y="172" type="curve" smooth="yes"/>
      <point x="625" y="273"/>
      <point x="533" y="381"/>
      <point x="406" y="437" type="curve"/>
    </contour>
  </outline>
</glyph>
<glyph name="knDha" format="1">
  <advance width="741"/>
  <unicode hex="0CA7"/>
  <outline>
    <contour>
      <point x="369" y="-89" type="move"/>
      <point x="369" y="-192" type="line"/>
    </contour>
    <component base="knDa"/>
  </outline>
</glyph>
<glyph name="knDha" format="1">
  <advance width="741"/>
  <unicode hex="0CA7"/>
  <outline>
    <contour>
      <point x="369" y="-89" type="move"/>
      <point x="369" y="-192" type="line"/>
    </contour>
    <component base="knDa"/>
  </outline>
</glyph>
<glyph name="knNa" format="1">
  <advance width="710"/>
  <unicode hex="0CA8"/>
  <outline>
    <contour>
      <point x="101.08" y="437" type="move"/>
      <point x="483.08" y="437" type="line" smooth="yes"/>
      <point x="556.08" y="437"/>
      <point x="599.08" y="463"/>
      <point x="631.08" y="515" type="curve" smooth="yes"/>
      <point x="657.08" y="558"/>
    </contour>
    <contour>
      <point x="121.08" y="4" type="move"/>
      <point x="124.08" y="114"/>
      <point x="137" y="162"/>
      <point x="168" y="193" type="curve" smooth="yes"/>
      <point x="190" y="215"/>
      <point x="208" y="221"/>
      <point x="236" y="221" type="curve" smooth="yes"/>
      <point x="274" y="221"/>
      <point x="311" y="193"/>
      <point x="346" y="134" type="curve" smooth="yes"/>
      <point x="386" y="67"/>
      <point x="420" y="27"/>
      <point x="480.08" y="27" type="curve" smooth="yes"/>
      <point x="548" y="27"/>
      <point x="604.08" y="80"/>
      <point x="604.08" y="172" type="curve" smooth="yes"/>
      <point x="604.08" y="273"/>
      <point x="538.08" y="381"/>
      <point x="411.08" y="437" type="curve"/>
    </contour>
  </outline>
</glyph>
<glyph name="knPa" format="1">
  <advance width="741"/>
  <unicode hex="0CAA"/>
  <outline>
    <contour>
      <point x="101" y="437" type="move"/>
      <point x="506" y="437" type="line" smooth="yes"/>
      <point x="579" y="437"/>
      <point x="622" y="463"/>
      <point x="654" y="515" type="curve"/>
    </contour>
    <contour>
      <point x="173" y="233" type="move"/>
      <point x="122" y="212"/>
      <point x="97" y="168"/>
      <point x="97" y="125" type="curve" smooth="yes"/>
      <point x="97" y="77"/>
      <point x="134" y="23"/>
      <point x="214" y="23" type="curve" smooth="yes"/>
      <point x="283" y="23"/>
      <point x="330" y="54"/>
      <point x="366" y="128" type="curve"/>
      <point x="371" y="128" type="line"/>
      <point x="411" y="52"/>
      <point x="451" y="27"/>
      <point x="515" y="27" type="curve" smooth="yes"/>
      <point x="588" y="27"/>
      <point x="637" y="76"/>
      <point x="637" y="170" type="curve" smooth="yes"/>
      <point x="637" y="215"/>
      <point x="632" y="253"/>
      <point x="623" y="298" type="curve"/>
    </contour>
    <contour>
      <point x="369" y="435" type="curve" smooth="yes"/>
      <point x="320" y="435"/>
      <point x="284" y="398"/>
      <point x="284" y="352" type="curve" smooth="yes"/>
      <point x="284" y="307"/>
      <point x="319" y="271"/>
      <point x="370" y="271" type="curve" smooth="yes"/>
      <point x="422" y="271"/>
      <point x="456" y="306"/>
      <point x="456" y="353" type="curve" smooth="yes"/>
      <point x="456" y="398"/>
      <point x="422" y="435"/>
    </contour>
  </outline>
</glyph>
<glyph name="knPa" format="1">
  <advance width="741"/>
  <unicode hex="0CAA"/>
  <outline>
    <contour>
      <point x="101.12" y="437" type="move"/>
      <point x="506.12" y="437" type="line" smooth="yes"/>
      <point x="579.12" y="437"/>
      <point x="622" y="463"/>
      <point x="654" y="515" type="curve"/>
    </contour>
    <contour>
      <point x="368" y="415" type="curve" smooth="yes"/>
      <point x="320" y="415"/>
      <point x="285" y="379"/>
      <point x="285" y="333" type="curve" smooth="yes"/>
      <point x="285" y="289"/>
      <point x="319" y="253"/>
      <point x="369" y="253" type="curve" smooth="yes"/>
      <point x="420" y="253"/>
      <point x="453" y="288"/>
      <point x="453" y="334" type="curve" smooth="yes"/>
      <point x="453" y="379"/>
      <point x="420" y="415"/>
    </contour>
    <contour>
      <point x="207" y="225" type="move"/>
      <point x="142" y="225"/>
      <point x="98" y="173"/>
      <point x="98" y="125" type="curve" smooth="yes"/>
      <point x="98" y="72"/>
      <point x="141" y="27"/>
      <point x="209" y="27" type="curve" smooth="yes"/>
      <point x="285" y="27"/>
      <point x="329" y="59"/>
      <point x="366" y="128" type="curve"/>
      <point x="371" y="128" type="line"/>
      <point x="413" y="63"/>
      <point x="459" y="27"/>
      <point x="532" y="27" type="curve" smooth="yes"/>
      <point x="604" y="27"/>
      <point x="647" y="76"/>
      <point x="647" y="134" type="curve" smooth="yes"/>
      <point x="647" y="181"/>
      <point x="623" y="215"/>
      <point x="582" y="238" type="curve"/>
    </contour>
  </outline>
</glyph>
<glyph name="knPha" format="1">
  <advance width="728"/>
  <unicode hex="0CAB"/>
  <outline>
    <contour>
      <point x="369" y="-89" type="move"/>
      <point x="369" y="-192" type="line"/>
    </contour>
    <component base="knPa"/>
  </outline>
</glyph>
<glyph name="knBa" format="1">
  <advance width="775"/>
  <unicode hex="0CAC"/>
  <outline>
    <contour>
      <point x="87.0559675346" y="421" type="move"/>
      <point x="112.055967535" y="445"/>
      <point x="155.055967535" y="463"/>
      <point x="193.055967535" y="463" type="curve" smooth="yes"/>
      <point x="249.055967535" y="463"/>
      <point x="277.055967535" y="424"/>
      <point x="277.055967535" y="381" type="curve" smooth="yes"/>
      <point x="277.055967535" y="346"/>
      <point x="246.055967535" y="307"/>
      <point x="192.055967535" y="255" type="curve" smooth="yes"/>
      <point x="146.055967535" y="210"/>
      <point x="117.055967535" y="164"/>
      <point x="117.055967535" y="123" type="curve" smooth="yes"/>
      <point x="117.055967535" y="69"/>
      <point x="150.055967535" y="21"/>
      <point x="222.055967535" y="21" type="curve" smooth="yes"/>
      <point x="307.055967535" y="21"/>
      <point x="352.055967535" y="64"/>
      <point x="394.055967535" y="147" type="curve"/>
      <point x="396.055967535" y="147" type="line"/>
      <point x="433.055967535" y="65"/>
      <point x="482.055967535" y="27"/>
      <point x="548.055967535" y="27" type="curve" smooth="yes"/>
      <point x="616.055967535" y="27"/>
      <point x="676.055967535" y="78"/>
      <point x="676.055967535" y="172" type="curve" smooth="yes"/>
      <point x="676.055967535" y="299"/>
      <point x="615.055967535" y="403"/>
      <point x="540.055967535" y="467" type="curve"/>
    </contour>
  </outline>
</glyph>
<glyph name="knBha" format="1">
  <advance width="775"/>
  <unicode hex="0CAD"/>
  <outline>
    <contour>
      <point x="391" y="-89" type="move"/>
      <point x="391" y="-192" type="line"/>
    </contour>
    <contour>
      <point x="483" y="437" type="move"/>
      <point x="555" y="437" type="line" smooth="yes"/>
      <point x="628" y="437"/>
      <point x="671" y="463"/>
      <point x="703" y="515" type="curve" smooth="yes"/>
      <point x="729" y="558"/>
    </contour>
    <contour>
      <point x="87" y="421" type="move"/>
      <point x="112" y="445"/>
      <point x="155" y="463"/>
      <point x="193" y="463" type="curve" smooth="yes"/>
      <point x="249" y="463"/>
      <point x="277" y="424"/>
      <point x="277" y="381" type="curve" smooth="yes"/>
      <point x="277" y="346"/>
      <point x="246" y="307"/>
      <point x="192" y="255" type="curve" smooth="yes"/>
      <point x="146" y="210"/>
      <point x="118" y="164"/>
      <point x="118" y="123" type="curve" smooth="yes"/>
      <point x="118" y="69"/>
      <point x="160" y="21"/>
      <point x="230" y="21" type="curve" smooth="yes"/>
      <point x="306" y="21"/>
      <point x="354" y="51"/>
      <point x="392" y="128" type="curve"/>
      <point x="397" y="128" type="line"/>
      <point x="442" y="52"/>
      <point x="477" y="27"/>
      <point x="546" y="27" type="curve" smooth="yes"/>
      <point x="612" y="27"/>
      <point x="676" y="80"/>
      <point x="676" y="179" type="curve" smooth="yes"/>
      <point x="676" y="279"/>
      <point x="625" y="373"/>
      <point x="540" y="437" type="curve"/>
    </contour>
  </outline>
</glyph>
<glyph name="knYa" format="1">
  <advance width="1218"/>
  <unicode hex="0CAF"/>
  <outline>
    <contour>
      <point x="218" y="437"/>
      <point x="125" y="332"/>
      <point x="125" y="227" type="curve" smooth="yes"/>
      <point x="125" y="110"/>
      <point x="205" y="23"/>
      <point x="336" y="23" type="curve" smooth="yes"/>
      <point x="465" y="23"/>
      <point x="547" y="112"/>
      <point x="547" y="227" type="curve" smooth="yes"/>
      <point x="547" y="330"/>
      <point x="456" y="437"/>
      <point x="336" y="437" type="curve" smooth="yes"/>
    </contour>
    <contour>
      <point x="634" y="437" type="move"/>
      <point x="736" y="437" type="line" smooth="yes"/>
      <point x="809" y="437"/>
      <point x="852" y="463"/>
      <point x="884" y="515" type="curve"/>
    </contour>
    <component base="knUsign" xOffset="612"/>
    <component base="knUsign" xOffset="917"/>
  </outline>
</glyph>
<glyph name="knYa" format="1">
  <advance width="1218"/>
  <unicode hex="0CAF"/>
  <outline>
    <contour>
      <point x="211" y="437"/>
      <point x="116" y="330"/>
      <point x="116" y="222" type="curve" smooth="yes"/>
      <point x="116" y="103"/>
      <point x="193" y="14"/>
      <point x="332" y="14" type="curve" smooth="yes"/>
      <point x="470" y="14"/>
      <point x="547" y="105"/>
      <point x="547" y="222" type="curve" smooth="yes"/>
      <point x="547" y="328"/>
      <point x="454" y="437"/>
      <point x="332" y="437" type="curve" smooth="yes"/>
    </contour>
    <contour>
      <point x="624" y="437" type="move"/>
      <point x="736" y="437" type="line" smooth="yes"/>
      <point x="809" y="437"/>
      <point x="852" y="463"/>
      <point x="884" y="515" type="curve" smooth="yes"/>
      <point x="910" y="558"/>
    </contour>
    <component base="knUsign" xOffset="612"/>
    <component base="knUsign" xOffset="913"/>
  </outline>
</glyph>
<glyph name="knRa" format="1">
  <advance width="678"/>
  <unicode hex="0CB0"/>
  <outline>
    <contour>
      <point x="98.12" y="437" type="move"/>
      <point x="451.12" y="437" type="line" smooth="yes"/>
      <point x="524.12" y="437"/>
      <point x="567" y="463"/>
      <point x="599" y="515" type="curve"/>
    </contour>
    <contour>
      <point x="211" y="427"/>
      <point x="119" y="330"/>
      <point x="119" y="225" type="curve" smooth="yes"/>
      <point x="119" y="109"/>
      <point x="203" y="23"/>
      <point x="330" y="23" type="curve" smooth="yes"/>
      <point x="458" y="23"/>
      <point x="540" y="111"/>
      <point x="540" y="225" type="curve" smooth="yes"/>
      <point x="540" y="328"/>
      <point x="454" y="427"/>
      <point x="332" y="427" type="curve" smooth="yes"/>
    </contour>
  </outline>
</glyph>
<glyph name="knLa" format="1">
  <advance width="771"/>
  <unicode hex="0CB2"/>
  <outline>
    <contour>
      <point x="114" y="354" type="move"/>
      <point x="151" y="306"/>
      <point x="191" y="277"/>
      <point x="242" y="277" type="curve" smooth="yes"/>
      <point x="296" y="277"/>
      <point x="339" y="317"/>
      <point x="339" y="369" type="curve" smooth="yes"/>
      <point x="339" y="419"/>
      <point x="302" y="463"/>
      <point x="239" y="463" type="curve" smooth="yes"/>
      <point x="159" y="463"/>
      <point x="97" y="375"/>
      <point x="97" y="255" type="curve" smooth="yes"/>
      <point x="97" y="123"/>
      <point x="198" y="18"/>
      <point x="390" y="18" type="curve" smooth="yes"/>
      <point x="597" y="18"/>
      <point x="671" y="148"/>
      <point x="671" y="266" type="curve" smooth="yes"/>
      <point x="671" y="344"/>
      <point x="631" y="421"/>
      <point x="575" y="464" type="curve"/>
    </contour>
  </outline>
</glyph>
<glyph name="knLla" format="1">
  <advance width="786"/>
  <unicode hex="0CB3"/>
  <outline>
    <contour>
      <point x="100" y="339" type="move"/>
      <point x="120" y="326"/>
      <point x="136" y="317"/>
      <point x="151" y="312" type="curve" smooth="yes"/>
      <point x="167" y="307"/>
      <point x="182" y="303"/>
      <point x="200" y="303" type="curve" smooth="yes"/>
      <point x="262" y="303"/>
      <point x="299" y="338"/>
      <point x="299" y="387" type="curve" smooth="yes"/>
      <point x="299" y="426"/>
      <point x="268" y="463"/>
      <point x="206" y="463" type="curve" smooth="yes"/>
      <point x="147" y="463"/>
      <point x="98" y="417"/>
      <point x="98" y="348" type="curve" smooth="yes"/>
      <point x="98" y="307"/>
      <point x="114" y="271"/>
      <point x="145" y="240" type="curve" smooth="yes"/>
      <point x="180" y="205"/>
      <point x="246" y="179"/>
      <point x="377" y="179" type="curve" smooth="yes"/>
      <point x="507" y="179"/>
      <point x="562" y="206"/>
      <point x="597" y="241" type="curve" smooth="yes"/>
      <point x="620" y="264"/>
      <point x="630" y="294"/>
      <point x="630" y="325" type="curve" smooth="yes"/>
      <point x="630" y="365"/>
      <point x="611" y="408"/>
      <point x="576" y="437" type="curve"/>
    </contour>
    <contour>
      <point x="377" y="177" type="curve" smooth="yes"/>
      <point x="283" y="176"/>
      <point x="246" y="137"/>
      <point x="246" y="97" type="curve" smooth="yes"/>
      <point x="246" y="56"/>
      <point x="289" y="14"/>
      <point x="377" y="14" type="curve" smooth="yes"/>
      <point x="469" y="14"/>
      <point x="510" y="56"/>
      <point x="510" y="96" type="curve" smooth="yes"/>
      <point x="510" y="137"/>
      <point x="477" y="178"/>
    </contour>
    <contour>
      <point x="484" y="437" type="move"/>
      <point x="586" y="437" type="line" smooth="yes"/>
      <point x="659" y="437"/>
      <point x="702" y="463"/>
      <point x="734" y="515" type="curve"/>
    </contour>
  </outline>
</glyph>
<glyph name="knLla" format="1">
  <advance width="764"/>
  <unicode hex="0CB3"/>
  <outline>
    <contour>
      <point x="112" y="393" type="move"/>
      <point x="112" y="369"/>
      <point x="126" y="343"/>
      <point x="140" y="329" type="curve" smooth="yes"/>
      <point x="156" y="313"/>
      <point x="178" y="303"/>
      <point x="206.0" y="303.0" type="curve" smooth="yes"/>
      <point x="252" y="303"/>
      <point x="288.0" y="338.0"/>
      <point x="288.0" y="378.0" type="curve" smooth="yes"/>
      <point x="288.0" y="417.0"/>
      <point x="253.0" y="452.0"/>
      <point x="202.0" y="452.0" type="curve" smooth="yes"/>
      <point x="144.0" y="452.0"/>
      <point x="96.0" y="400.0"/>
      <point x="96.0" y="338.0" type="curve" smooth="yes"/>
      <point x="96.0" y="299.0"/>
      <point x="112.0" y="262.0"/>
      <point x="143.0" y="232.0" type="curve" smooth="yes"/>
      <point x="178.0" y="198.0"/>
      <point x="246.0" y="168.0"/>
      <point x="366.0" y="168.0" type="curve" smooth="yes"/>
      <point x="477.0" y="168.0"/>
      <point x="540.0" y="193.0"/>
      <point x="575.0" y="227.0" type="curve" smooth="yes"/>
      <point x="598.0" y="249.0"/>
      <point x="609.0" y="278.0"/>
      <point x="609.0" y="308.0" type="curve" smooth="yes"/>
      <point x="609.0" y="351.0"/>
      <point x="579.0" y="411.0"/>
      <point x="517.0" y="437.0" type="curve"/>
    </contour>
    <contour>
      <point x="444" y="437" type="move"/>
      <point x="526" y="437" type="line" smooth="yes"/>
      <point x="599" y="437"/>
      <point x="642" y="463"/>
      <point x="674" y="515" type="curve"/>
    </contour>
    <contour>
      <point x="358" y="166" type="curve" smooth="yes"/>
      <point x="280" y="165"/>
      <point x="249" y="128"/>
      <point x="249" y="89" type="curve" smooth="yes"/>
      <point x="249" y="50"/>
      <point x="285" y="11"/>
      <point x="358" y="11" type="curve" smooth="yes"/>
      <point x="434" y="11"/>
      <point x="468" y="50"/>
      <point x="468" y="88" type="curve" smooth="yes"/>
      <point x="468" y="128"/>
      <point x="441" y="167"/>
    </contour>
  </outline>
</glyph>
<glyph name="knVa" format="1">
  <advance width="741"/>
  <unicode hex="0CB5"/>
  <outline>
    <contour>
      <point x="173" y="233" type="move"/>
      <point x="128" y="215"/>
      <point x="97" y="173"/>
      <point x="97" y="125" type="curve" smooth="yes"/>
      <point x="97" y="74"/>
      <point x="137" y="23"/>
      <point x="214" y="23" type="curve" smooth="yes"/>
      <point x="281" y="23"/>
      <point x="329" y="52"/>
      <point x="366" y="128" type="curve"/>
      <point x="371" y="128" type="line"/>
      <point x="412" y="49"/>
      <point x="452" y="27"/>
      <point x="514" y="27" type="curve" smooth="yes"/>
      <point x="587" y="27"/>
      <point x="647" y="78"/>
      <point x="647" y="172" type="curve" smooth="yes"/>
      <point x="647" y="273"/>
      <point x="568" y="372"/>
      <point x="442" y="434" type="curve"/>
    </contour>
    <contour>
      <point x="111" y="437" type="move"/>
      <point x="526" y="437" type="line" smooth="yes"/>
      <point x="599" y="437"/>
      <point x="642" y="463"/>
      <point x="674" y="515" type="curve"/>
    </contour>
  </outline>
</glyph>
<glyph name="knSha" format="1">
  <advance width="710"/>
  <unicode hex="0CB6"/>
  <outline>
    <contour>
      <point x="101.08" y="437" type="move"/>
      <point x="483.08" y="437" type="line" smooth="yes"/>
      <point x="556.08" y="437"/>
      <point x="599" y="463"/>
      <point x="631" y="515" type="curve"/>
    </contour>
    <contour>
      <point x="217" y="345" type="move"/>
      <point x="218" y="372"/>
      <point x="227" y="396"/>
      <point x="242" y="411" type="curve" smooth="yes"/>
      <point x="258" y="427"/>
      <point x="270" y="437"/>
      <point x="308" y="437" type="curve" smooth="yes"/>
      <point x="354" y="437"/>
      <point x="396" y="400"/>
      <point x="396" y="340" type="curve" smooth="yes"/>
      <point x="396" y="279"/>
      <point x="364" y="242"/>
      <point x="291" y="235" type="curve" smooth="yes"/>
      <point x="200" y="226"/>
      <point x="173" y="212"/>
      <point x="156" y="195" type="curve" smooth="yes"/>
      <point x="141" y="180"/>
      <point x="132" y="159"/>
      <point x="132" y="134" type="curve" smooth="yes"/>
      <point x="132" y="76"/>
      <point x="188" y="27"/>
      <point x="328" y="27" type="curve" smooth="yes"/>
      <point x="441" y="27"/>
      <point x="501" y="56"/>
      <point x="534" y="89" type="curve" smooth="yes"/>
      <point x="562" y="117"/>
      <point x="580" y="155"/>
      <point x="580" y="201" type="curve" smooth="yes"/>
      <point x="580" y="282"/>
      <point x="527" y="381"/>
      <point x="400" y="437" type="curve"/>
    </contour>
  </outline>
</glyph>
<glyph name="knSsa" format="1">
  <advance width="736"/>
  <unicode hex="0CB7"/>
  <outline>
    <contour>
      <point x="143.0" y="225.0" type="move"/>
      <point x="114.0" y="201.0"/>
      <point x="97.0" y="168.0"/>
      <point x="97.0" y="127.0" type="curve" smooth="yes"/>
      <point x="97.0" y="79.0"/>
      <point x="133.0" y="21.0"/>
      <point x="214.0" y="21.0" type="curve" smooth="yes"/>
      <point x="283.0" y="21.0"/>
      <point x="332.0" y="65.0"/>
      <point x="368.0" y="147.0" type="curve"/>
      <point x="370.0" y="147.0" type="line"/>
      <point x="407.0" y="65.0"/>
      <point x="453" y="27"/>
      <point x="519.0" y="27.0" type="curve" smooth="yes"/>
      <point x="607" y="27"/>
      <point x="650" y="114"/>
      <point x="650" y="186" type="curve" smooth="yes"/>
      <point x="650" y="240"/>
      <point x="617" y="274"/>
      <point x="577" y="274" type="curve" smooth="yes"/>
      <point x="535" y="274"/>
      <point x="510" y="236"/>
      <point x="510" y="202" type="curve" smooth="yes"/>
      <point x="510" y="169"/>
      <point x="524" y="140"/>
      <point x="552" y="101" type="curve" smooth="yes"/>
      <point x="681" y="-74" type="line"/>
    </contour>
    <contour>
      <point x="101" y="437" type="move"/>
      <point x="506" y="437" type="line" smooth="yes"/>
      <point x="579" y="437"/>
      <point x="622" y="463"/>
      <point x="654" y="515" type="curve" smooth="yes"/>
      <point x="680" y="558"/>
    </contour>
    <contour>
      <point x="319" y="437" type="move"/>
      <point x="298" y="421"/>
      <point x="277" y="390"/>
      <point x="277" y="354" type="curve" smooth="yes"/>
      <point x="277" y="306"/>
      <point x="314" y="267"/>
      <point x="369" y="267" type="curve" smooth="yes"/>
      <point x="424" y="267"/>
      <point x="462" y="305"/>
      <point x="462" y="355" type="curve" smooth="yes"/>
      <point x="462" y="387"/>
      <point x="449" y="419"/>
      <point x="424" y="437" type="curve"/>
    </contour>
  </outline>
</glyph>
<glyph name="knSa" format="1">
  <advance width="710"/>
  <unicode hex="0CB8"/>
  <outline>
    <contour>
      <point x="298.08" y="437" type="move"/>
      <point x="277.08" y="421"/>
      <point x="256.08" y="390"/>
      <point x="256.08" y="354" type="curve" smooth="yes"/>
      <point x="256.08" y="306"/>
      <point x="293.08" y="267"/>
      <point x="348.08" y="267" type="curve" smooth="yes"/>
      <point x="403.08" y="267"/>
      <point x="441.08" y="305"/>
      <point x="441.08" y="355" type="curve" smooth="yes"/>
      <point x="441.08" y="387"/>
      <point x="428.08" y="419"/>
      <point x="403.08" y="437" type="curve"/>
    </contour>
    <contour>
      <point x="101.08" y="437" type="move"/>
      <point x="483.08" y="437" type="line" smooth="yes"/>
      <point x="556.08" y="437"/>
      <point x="599.08" y="463"/>
      <point x="631.08" y="515" type="curve" smooth="yes"/>
      <point x="657.08" y="558"/>
    </contour>
    <contour>
      <point x="121.08" y="4" type="move"/>
      <point x="124.08" y="114"/>
      <point x="137.08" y="182"/>
      <point x="168.08" y="213" type="curve" smooth="yes"/>
      <point x="191.08" y="236"/>
      <point x="209.08" y="241"/>
      <point x="233.08" y="241" type="curve" smooth="yes"/>
      <point x="280.08" y="241"/>
      <point x="319.08" y="211"/>
      <point x="355.08" y="134" type="curve" smooth="yes"/>
      <point x="387.08" y="66"/>
      <point x="417.08" y="27"/>
      <point x="480.08" y="27" type="curve" smooth="yes"/>
      <point x="548.08" y="27"/>
      <point x="601.08" y="80"/>
      <point x="601.08" y="172" type="curve" smooth="yes"/>
      <point x="601.08" y="228"/>
      <point x="594.08" y="267"/>
      <point x="585.08" y="296" type="curve"/>
    </contour>
  </outline>
</glyph>
<glyph name="knHa" format="1">
  <advance width="770"/>
  <unicode hex="0CB9"/>
  <outline>
    <contour>
      <point x="368" y="158" type="curve" smooth="yes"/>
      <point x="368" y="229"/>
      <point x="318" y="288"/>
      <point x="220" y="288" type="curve" smooth="yes"/>
      <point x="130" y="288"/>
      <point x="75" y="229"/>
      <point x="75" y="158" type="curve" smooth="yes"/>
      <point x="75" y="86"/>
      <point x="129" y="27"/>
      <point x="220" y="27" type="curve" smooth="yes"/>
      <point x="316" y="27"/>
      <point x="368" y="86"/>
    </contour>
    <contour>
      <point x="685" y="158" type="curve" smooth="yes"/>
      <point x="685" y="229"/>
      <point x="633" y="288"/>
      <point x="538" y="288" type="curve" smooth="yes"/>
      <point x="446" y="288"/>
      <point x="391" y="229"/>
      <point x="391" y="158" type="curve" smooth="yes"/>
      <point x="391" y="86"/>
      <point x="447" y="27"/>
      <point x="538" y="27" type="curve" smooth="yes"/>
      <point x="634" y="27"/>
      <point x="685" y="86"/>
    </contour>
    <contour>
      <point x="113.56" y="437" type="move"/>
      <point x="526.56" y="437" type="line" smooth="yes"/>
      <point x="599.56" y="437"/>
      <point x="642.56" y="463"/>
      <point x="674.56" y="515" type="curve" smooth="yes"/>
      <point x="700.56" y="558"/>
    </contour>
    <contour>
      <point x="379.56" y="255" type="move"/>
      <point x="379.56" y="409" type="line" smooth="yes"/>
    </contour>
  </outline>
</glyph>
<glyph name="knAasign" format="1">
  <advance width="347"/>
  <unicode hex="0CBE"/>
  <outline>
    <contour>
      <point x="-353" y="437" type="move"/>
      <point x="13" y="437" type="line" smooth="yes"/>
      <point x="159" y="437"/>
      <point x="264" y="343"/>
      <point x="264" y="160" type="curve" smooth="yes"/>
      <point x="264" y="67"/>
      <point x="217" y="12"/>
      <point x="154" y="12" type="curve" smooth="yes"/>
      <point x="95" y="12"/>
      <point x="62" y="54"/>
      <point x="61" y="100" type="curve" smooth="yes"/>
      <point x="60" y="154"/>
      <point x="101" y="206"/>
      <point x="175" y="206" type="curve" smooth="yes"/>
      <point x="204" y="206"/>
      <point x="234" y="202"/>
      <point x="259" y="194" type="curve"/>
    </contour>
  </outline>
</glyph>
<glyph name="knAasign" format="1">
  <advance width="347"/>
  <unicode hex="0CBE"/>
  <outline>
    <contour>
      <point x="-352.96" y="437" type="move"/>
      <point x="13.04" y="437" type="line" smooth="yes"/>
      <point x="159.04" y="437"/>
      <point x="264.04" y="343"/>
      <point x="264.04" y="160" type="curve" smooth="yes"/>
      <point x="264.04" y="67"/>
      <point x="217.04" y="12"/>
      <point x="154.04" y="12" type="curve" smooth="yes"/>
      <point x="95.04" y="12"/>
      <point x="58.04" y="48"/>
      <point x="57.04" y="106" type="curve" smooth="yes"/>
      <point x="56.04" y="168"/>
      <point x="105.04" y="235"/>
      <point x="235.04" y="244" type="curve"/>
    </contour>
  </outline>
</glyph>
<glyph name="knUsign" format="1">
  <advance width="300"/>
  <unicode hex="0CC1"/>
  <outline>
    <contour>
      <point x="-90" y="112" type="move"/>
      <point x="-41" y="53"/>
      <point x="19" y="22"/>
      <point x="84" y="22" type="curve" smooth="yes"/>
      <point x="171" y="22"/>
      <point x="226" y="88"/>
      <point x="226" y="180" type="curve" smooth="yes"/>
      <point x="226" y="259"/>
      <point x="185" y="347"/>
      <point x="126" y="414" type="curve"/>
    </contour>
  </outline>
</glyph>
<glyph name="knUsign" format="1">
  <advance width="300"/>
  <unicode hex="0CC1"/>
  <outline>
    <contour>
      <point x="-89.8916361032" y="112" type="move"/>
      <point x="-40.8916361032" y="53"/>
      <point x="19" y="27"/>
      <point x="84" y="27" type="curve" smooth="yes"/>
      <point x="152" y="27"/>
      <point x="212" y="77"/>
      <point x="212" y="178" type="curve" smooth="yes"/>
      <point x="212" y="278"/>
      <point x="161" y="372"/>
      <point x="96" y="436" type="curve"/>
    </contour>
  </outline>
</glyph>
<glyph name="knUusign" format="1">
  <advance width="592"/>
  <unicode hex="0CC2"/>
  <outline>
    <contour>
      <point x="-93.3708323255" y="190" type="move"/>
      <point x="-36.3708323255" y="87"/>
      <point x="38.6291676745" y="27"/>
      <point x="83.6291676745" y="27" type="curve" smooth="yes"/>
      <point x="142.629167675" y="27"/>
      <point x="173.629167675" y="60"/>
      <point x="173.629167675" y="125" type="curve" smooth="yes"/>
      <point x="173.629167675" y="188"/>
      <point x="146.629167675" y="255"/>
      <point x="146.629167675" y="325" type="curve" smooth="yes"/>
      <point x="146.629167675" y="384"/>
      <point x="187.629167675" y="437"/>
      <point x="256.629167675" y="437" type="curve" smooth="yes"/>
      <point x="402.629167675" y="437"/>
      <point x="507.629167675" y="343"/>
      <point x="507.629167675" y="160" type="curve" smooth="yes"/>
      <point x="507.629167675" y="67"/>
      <point x="460.629167675" y="12"/>
      <point x="397.629167675" y="12" type="curve" smooth="yes"/>
      <point x="338.629167675" y="12"/>
      <point x="301.629167675" y="48"/>
      <point x="300.629167675" y="106" type="curve" smooth="yes"/>
      <point x="299.629167675" y="168"/>
      <point x="348.629167675" y="235"/>
      <point x="478.629167675" y="244" type="curve"/>
    </contour>
  </outline>
</glyph>
<glyph name="knRrvocalsign" format="1">
  <advance width="497"/>
  <unicode hex="0CC4"/>
  <outline>
    <contour>
      <point x="77" y="139" type="move"/>
      <point x="283" y="139" type="line" smooth="yes"/>
      <point x="435" y="139"/>
      <point x="519" y="50"/>
      <point x="519" y="-67" type="curve" smooth="yes"/>
      <point x="519" y="-140"/>
      <point x="479" y="-183"/>
      <point x="427" y="-183" type="curve" smooth="yes"/>
      <point x="377" y="-183"/>
      <point x="346" y="-147"/>
      <point x="346" y="-107" type="curve" smooth="yes"/>
      <point x="346" y="-60"/>
      <point x="384" y="-12"/>
      <point x="500" y="7" type="curve"/>
    </contour>
    <component base="knRvocalsign"/>
  </outline>
</glyph>
<glyph name="knEsign" format="1">
  <advance width="0"/>
  <unicode hex="0CC6"/>
  <outline>
    <contour>
      <point x="-358" y="437" type="move"/>
      <point x="-207" y="437" type="line" smooth="yes"/>
      <point x="-104" y="437"/>
      <point x="-59" y="488"/>
      <point x="-59" y="541" type="curve" smooth="yes"/>
      <point x="-59" y="590"/>
      <point x="-96" y="631"/>
      <point x="-153" y="631" type="curve" smooth="yes"/>
      <point x="-214" y="631"/>
      <point x="-261" y="576"/>
      <point x="-261" y="498" type="curve"/>
      <point x="-261" y="486"/>
      <point x="-260" y="471"/>
      <point x="-257" y="455" type="curve"/>
    </contour>
  </outline>
</glyph>
<glyph name="knEsign" format="1">
  <advance width="0"/>
  <unicode hex="0CC6"/>
  <outline>
    <contour>
      <point x="-358" y="437" type="move"/>
      <point x="-218" y="437" type="line" smooth="yes"/>
      <point x="-110" y="437"/>
      <point x="-59" y="482"/>
      <point x="-59" y="541" type="curve" smooth="yes"/>
      <point x="-59" y="593"/>
      <point x="-95" y="631"/>
      <point x="-156" y="631" type="curve" smooth="yes"/>
      <point x="-224" y="631"/>
      <point x="-272" y="565"/>
      <point x="-272" y="467" type="curve" smooth="yes"/>
    </contour>
  </outline>
</glyph>
<glyph name="knAisign" format="1">
  <advance width="157"/>
  <unicode hex="0CC8"/>
  <outline>
    <contour>
      <point x="94" y="23" type="move"/>
      <point x="151" y="37"/>
      <point x="177" y="67"/>
      <point x="177" y="110" type="curve" smooth="yes"/>
      <point x="177" y="151"/>
      <point x="138" y="193"/>
      <point x="71" y="211" type="curve"/>
    </contour>
    <contour>
      <point x="-154" y="-235" type="move"/>
      <point x="-130" y="-244"/>
      <point x="-97" y="-253"/>
      <point x="-71" y="-253" type="curve" smooth="yes"/>
      <point x="-11" y="-253"/>
      <point x="31" y="-218"/>
      <point x="31" y="-169" type="curve" smooth="yes"/>
      <point x="31" y="-123"/>
      <point x="-4" y="-85"/>
      <point x="-58" y="-86" type="curve" smooth="yes"/>
      <point x="-115" y="-87"/>
      <point x="-161" y="-133"/>
      <point x="-161" y="-208" type="curve" smooth="yes"/>
      <point x="-161" y="-311"/>
      <point x="-88" y="-383"/>
      <point x="17" y="-383" type="curve" smooth="yes"/>
      <point x="129" y="-383"/>
      <point x="194" y="-312"/>
      <point x="194" y="-209" type="curve"/>
      <point x="195" y="-128"/>
      <point x="160" y="-49"/>
      <point x="91" y="22" type="curve"/>
    </contour>
    <component base="knEsign"/>
  </outline>
</glyph>
<glyph name="knAisign" format="1">
  <advance width="157"/>
  <unicode hex="0CC8"/>
  <outline>
    <contour>
      <point x="113" y="-43" type="move"/>
      <point x="178" y="-31"/>
      <point x="200" y="-1"/>
      <point x="200" y="37" type="curve" smooth="yes"/>
      <point x="200" y="80"/>
      <point x="142" y="122"/>
      <point x="58" y="143" type="curve"/>
    </contour>
    <contour>
      <point x="-132.0" y="-269.0" type="move"/>
      <point x="-23.0" y="-262.0"/>
      <point x="31.0" y="-216.0"/>
      <point x="31.0" y="-163.0" type="curve" smooth="yes"/>
      <point x="31.0" y="-116.0"/>
      <point x="-1.0" y="-80.0"/>
      <point x="-55.0" y="-81.0" type="curve" smooth="yes"/>
      <point x="-112.0" y="-82.0"/>
      <point x="-161.0" y="-126.0"/>
      <point x="-161.0" y="-208.0" type="curve" smooth="yes"/>
      <point x="-161.0" y="-311.0"/>
      <point x="-92.0" y="-383.0"/>
      <point x="13.0" y="-383.0" type="curve" smooth="yes"/>
      <point x="124.0" y="-383.0"/>
      <point x="189" y="-315"/>
      <point x="190.0" y="-211.0" type="curve" smooth="yes"/>
      <point x="191" y="-137"/>
      <point x="148" y="-79"/>
      <point x="110" y="-44" type="curve"/>
    </contour>
    <component base="knEsign"/>
  </outline>
</glyph>
<glyph name="knAusign" format="1">
  <advance width="337"/>
  <unicode hex="0CCC"/>
  <outline>
    <contour>
      <point x="-271.08" y="608" type="move"/>
      <point x="2.92" y="608" type="line" smooth="yes"/>
      <point x="148.92" y="608"/>
      <point x="253.92" y="514"/>
      <point x="253.92" y="331" type="curve" smooth="yes"/>
      <point x="253.92" y="238"/>
      <point x="206.92" y="183"/>
      <point x="143.92" y="183" type="curve" smooth="yes"/>
      <point x="84.92" y="183"/>
      <point x="47.92" y="219"/>
      <point x="46.92" y="277" type="curve" smooth="yes"/>
      <point x="45.92" y="339"/>
      <point x="94.92" y="406"/>
      <point x="224.92" y="415" type="curve"/>
    </contour>
    <contour>
      <point x="-316.08" y="437" type="move"/>
      <point x="-225.08" y="437" type="line" smooth="yes"/>
      <point x="-126.08" y="437"/>
      <point x="-74.08" y="484"/>
      <point x="-45.08" y="603" type="curve"/>
    </contour>
  </outline>
</glyph>
<glyph name="knLength" format="1">
  <advance width="352"/>
  <unicode hex="0CD5"/>
  <outline>
    <contour>
      <point x="76" y="343" type="move"/>
      <point x="107" y="308"/>
      <point x="153" y="289"/>
      <point x="190" y="289" type="curve" smooth="yes"/>
      <point x="244" y="289"/>
      <point x="280" y="323"/>
      <point x="280" y="376" type="curve" smooth="yes"/>
      <point x="280" y="424"/>
      <point x="245" y="463"/>
      <point x="193" y="463" type="curve" smooth="yes"/>
      <point x="119" y="463"/>
      <point x="70" y="376"/>
      <point x="70" y="263" type="curve" smooth="yes"/>
      <point x="70" y="140"/>
      <point x="142" y="61"/>
      <point x="253" y="27" type="curve" smooth="yes"/>
    </contour>
  </outline>
</glyph>
<glyph name="emdash" format="1">
  <advance width="765"/>
  <unicode hex="2014"/>
  <outline>
    <contour>
      <point x="114" y="222" type="move"/>
      <point x="659" y="222" type="line"/>
    </contour>
  </outline>
</glyph>
<glyph name="quoteleft" format="1">
  <advance width="235"/>
  <unicode hex="2018"/>
  <outline>
    <contour>
      <point x="157" y="405" type="move" smooth="yes"/>
      <point x="131" y="440"/>
      <point x="116" y="486"/>
      <point x="116" y="532" type="curve" smooth="yes"/>
      <point x="116" y="551"/>
      <point x="118" y="569"/>
      <point x="122" y="581" type="curve"/>
    </contour>
  </outline>
</glyph>
<glyph name="quoteright" format="1">
  <advance width="235"/>
  <unicode hex="2019"/>
  <outline>
    <contour>
      <point x="114" y="581" type="move"/>
      <point x="118" y="569"/>
      <point x="120" y="551"/>
      <point x="120" y="532" type="curve" smooth="yes"/>
      <point x="120" y="486"/>
      <point x="104" y="440"/>
      <point x="78" y="405" type="curve" smooth="yes"/>
      <point x="57" y="375"/>
    </contour>
  </outline>
</glyph>
<glyph name="quotedblleft" format="1">
  <advance width="420"/>
  <unicode hex="201C"/>
  <outline>
    <contour>
      <point x="336.96" y="405" type="move" smooth="yes"/>
      <point x="309.96" y="442"/>
      <point x="292.96" y="491"/>
      <point x="292.96" y="540" type="curve" smooth="yes"/>
      <point x="292.96" y="560"/>
      <point x="294.96" y="579"/>
      <point x="298.96" y="592" type="curve"/>
    </contour>
    <contour>
      <point x="167.96" y="401" type="move" smooth="yes"/>
      <point x="140.96" y="438"/>
      <point x="122.96" y="481"/>
      <point x="122.96" y="530" type="curve" smooth="yes"/>
      <point x="122.96" y="550"/>
      <point x="124.96" y="569"/>
      <point x="128.96" y="582" type="curve"/>
    </contour>
  </outline>
</glyph>
<glyph name="quotedblright" format="1">
  <advance width="395"/>
  <unicode hex="201D"/>
  <outline>
    <contour>
      <point x="114" y="580" type="move"/>
      <point x="118" y="569"/>
      <point x="120" y="551"/>
      <point x="120" y="531" type="curve" smooth="yes"/>
      <point x="120" y="485"/>
      <point x="104" y="439"/>
      <point x="78" y="405" type="curve" smooth="yes"/>
      <point x="57" y="375"/>
    </contour>
    <contour>
      <point x="273" y="572" type="move"/>
      <point x="277" y="559"/>
      <point x="279" y="541"/>
      <point x="279" y="523" type="curve" smooth="yes"/>
      <point x="279" y="476"/>
      <point x="263" y="436"/>
      <point x="237" y="401" type="curve" smooth="yes"/>
      <point x="216" y="371"/>
    </contour>
  </outline>
</glyph>
<glyph name="ellipsis" format="1">
  <advance width="730"/>
  <unicode hex="2026"/>
  <outline>
    <contour>
      <point x="118" y="91" type="move"/>
      <point x="120" y="80"/>
      <point x="120" y="67"/>
      <point x="120" y="47" type="curve" smooth="yes"/>
      <point x="120" y="33"/>
      <point x="119" y="20"/>
      <point x="117" y="8" type="curve"/>
    </contour>
    <contour>
      <point x="358" y="91" type="move"/>
      <point x="360" y="80"/>
      <point x="360" y="67"/>
      <point x="360" y="47" type="curve" smooth="yes"/>
      <point x="360" y="33"/>
      <point x="359" y="20"/>
      <point x="357" y="8" type="curve"/>
    </contour>
    <contour>
      <point x="588" y="91" type="move"/>
      <point x="590" y="80"/>
      <point x="590" y="67"/>
      <point x="590" y="47" type="curve" smooth="yes"/>
      <point x="590" y="33"/>
      <point x="589" y="20"/>
      <point x="587" y="8" type="curve"/>
    </contour>
  </outline>
</glyph>
<glyph name="guilsinglleft" format="1">
  <advance width="278"/>
  <unicode hex="2039"/>
  <outline>
    <contour>
      <point x="76" y="192" type="move"/>
      <point x="187" y="68" type="line"/>
    </contour>
    <contour>
      <point x="187" y="320" type="move"/>
      <point x="76" y="196" type="line"/>
    </contour>
  </outline>
</glyph>
<glyph name="guilsinglright" format="1">
  <advance width="278"/>
  <unicode hex="203A"/>
  <outline>
    <contour>
      <point x="91" y="68" type="move"/>
      <point x="202" y="192" type="line"/>
    </contour>
    <contour>
      <point x="202" y="196" type="move"/>
      <point x="91" y="320" type="line"/>
    </contour>
  </outline>
</glyph>
<glyph name="dieresisbelowcmb" format="1">
  <advance width="500"/>
  <outline>
    <contour>
      <point x="158" y="-89" type="move"/>
      <point x="160" y="-98"/>
      <point x="160" y="-110"/>
      <point x="160" y="-127" type="curve" smooth="yes"/>
      <point x="160" y="-139"/>
      <point x="159" y="-151"/>
      <point x="157" y="-161" type="curve"/>
    </contour>
    <contour>
      <point x="335" y="-89" type="move"/>
      <point x="337" y="-98"/>
      <point x="337" y="-110"/>
      <point x="337" y="-127" type="curve" smooth="yes"/>
      <point x="337" y="-139"/>
      <point x="336" y="-151"/>
      <point x="334" y="-161" type="curve"/>
    </contour>
  </outline>
</glyph>
<glyph name="dotbelowcmb" format="1">
  <advance width="500"/>
  <outline>
    <contour>
      <point x="248" y="-89" type="move"/>
      <point x="250" y="-100"/>
      <point x="250" y="-113"/>
      <point x="250" y="-133" type="curve" smooth="yes"/>
      <point x="250" y="-147"/>
      <point x="249" y="-160"/>
      <point x="247" y="-172" type="curve"/>
    </contour>
  </outline>
</glyph>
<glyph name="knA" format="1">
  <advance width="803"/>
  <outline>
    <contour>
      <point x="287" y="174" type="move"/>
      <point x="521" y="174" type="line"/>
    </contour>
    <contour>
      <point x="123" y="330" type="move"/>
      <point x="161" y="292"/>
      <point x="205" y="268"/>
      <point x="250" y="268" type="curve" smooth="yes"/>
      <point x="316" y="268"/>
      <point x="353" y="311"/>
      <point x="353" y="368" type="curve" smooth="yes"/>
      <point x="353" y="418"/>
      <point x="317" y="463"/>
      <point x="256" y="463" type="curve" smooth="yes"/>
      <point x="171" y="463"/>
      <point x="110" y="365"/>
      <point x="110" y="238" type="curve" smooth="yes"/>
      <point x="110" y="123"/>
      <point x="185" y="14"/>
      <point x="397" y="14" type="curve" smooth="yes"/>
      <point x="629" y="14"/>
      <point x="704" y="123"/>
      <point x="704" y="240" type="curve" smooth="yes"/>
      <point x="704" y="377"/>
      <point x="644" y="444"/>
      <point x="578" y="444" type="curve" smooth="yes"/>
      <point x="515" y="444"/>
      <point x="486" y="390"/>
      <point x="486" y="330" type="curve" smooth="yes"/>
      <point x="486" y="282"/>
      <point x="502" y="232"/>
      <point x="518" y="184" type="curve" smooth="yes"/>
      <point x="518" y="184"/>
    </contour>
  </outline>
</glyph>
<glyph name="knAa" format="1">
  <advance width="828"/>
  <outline>
    <contour>
      <point x="123.0" y="330.0" type="move"/>
      <point x="161.0" y="292.0"/>
      <point x="205.0" y="268.0"/>
      <point x="250.0" y="268.0" type="curve" smooth="yes"/>
      <point x="316.0" y="268.0"/>
      <point x="353.0" y="311.0"/>
      <point x="353.0" y="368.0" type="curve" smooth="yes"/>
      <point x="353.0" y="418.0"/>
      <point x="317.0" y="463.0"/>
      <point x="256.0" y="463.0" type="curve" smooth="yes"/>
      <point x="171.0" y="463.0"/>
      <point x="110.0" y="365.0"/>
      <point x="110.0" y="238.0" type="curve" smooth="yes"/>
      <point x="110.0" y="123.0"/>
      <point x="185.0" y="14.0"/>
      <point x="397.0" y="14.0" type="curve" smooth="yes"/>
      <point x="548.0" y="14.0"/>
      <point x="600" y="82"/>
      <point x="600" y="143" type="curve" smooth="yes"/>
      <point x="600" y="189"/>
      <point x="574" y="223"/>
      <point x="557" y="256" type="curve" smooth="yes"/>
      <point x="540" y="289"/>
      <point x="533" y="314"/>
      <point x="533" y="344" type="curve" smooth="yes"/>
      <point x="533" y="392"/>
      <point x="567" y="437"/>
      <point x="622.0" y="437.0" type="curve" smooth="yes"/>
      <point x="682" y="437"/>
      <point x="718" y="394"/>
      <point x="718" y="328" type="curve" smooth="yes"/>
      <point x="718" y="256"/>
      <point x="676.0" y="194.0"/>
      <point x="544.0" y="194.0" type="curve" smooth="yes"/>
      <point x="365.0" y="194.0" type="line"/>
    </contour>
  </outline>
</glyph>
<glyph name="knAu" format="1">
  <advance width="793"/>
  <outline>
    <contour>
      <point x="88" y="421" type="move"/>
      <point x="113" y="445"/>
      <point x="156" y="463"/>
      <point x="194" y="463" type="curve" smooth="yes"/>
      <point x="250" y="463"/>
      <point x="278" y="424"/>
      <point x="278" y="381" type="curve" smooth="yes"/>
      <point x="278" y="346"/>
      <point x="247" y="307"/>
      <point x="193" y="255" type="curve" smooth="yes"/>
      <point x="147" y="210"/>
      <point x="118" y="164"/>
      <point x="118" y="123" type="curve" smooth="yes"/>
      <point x="118" y="69"/>
      <point x="151" y="21"/>
      <point x="223" y="21" type="curve" smooth="yes"/>
      <point x="308" y="21"/>
      <point x="353" y="64"/>
      <point x="395" y="147" type="curve"/>
      <point x="397" y="147" type="line"/>
      <point x="434" y="65"/>
      <point x="483" y="27"/>
      <point x="549" y="27" type="curve" smooth="yes"/>
      <point x="627" y="27"/>
      <point x="678" y="84"/>
      <point x="678" y="154" type="curve" smooth="yes"/>
      <point x="678" y="188"/>
      <point x="668" y="228"/>
      <point x="657" y="253" type="curve"/>
    </contour>
    <contour>
      <point x="157" y="635" type="move"/>
      <point x="451" y="635" type="line" smooth="yes"/>
      <point x="617" y="635"/>
      <point x="705" y="582"/>
      <point x="705" y="459" type="curve" smooth="yes"/>
      <point x="705" y="385"/>
      <point x="654" y="337"/>
      <point x="594" y="337" type="curve" smooth="yes"/>
      <point x="545" y="337"/>
      <point x="508" y="371"/>
      <point x="507" y="416" type="curve" smooth="yes"/>
      <point x="506" y="466"/>
      <point x="552" y="526"/>
      <point x="666" y="526" type="curve"/>
    </contour>
    <contour>
      <point x="185" y="463" type="move"/>
      <point x="203" y="464" type="line" smooth="yes"/>
      <point x="302" y="464"/>
      <point x="354" y="511"/>
      <point x="383" y="630" type="curve"/>
    </contour>
  </outline>
</glyph>
<glyph name="knBI" format="1">
  <advance width="775"/>
  <outline>
    <contour>
      <point x="87.6278507605" y="421" type="move"/>
      <point x="112.62785076" y="445"/>
      <point x="155.62785076" y="463"/>
      <point x="193.62785076" y="463" type="curve" smooth="yes"/>
      <point x="249.62785076" y="463"/>
      <point x="277.62785076" y="424"/>
      <point x="277.62785076" y="381" type="curve" smooth="yes"/>
      <point x="277.62785076" y="346"/>
      <point x="246.62785076" y="307"/>
      <point x="192.62785076" y="255" type="curve" smooth="yes"/>
      <point x="146.62785076" y="210"/>
      <point x="117.62785076" y="164"/>
      <point x="117.62785076" y="123" type="curve" smooth="yes"/>
      <point x="117.62785076" y="69"/>
      <point x="150.62785076" y="21"/>
      <point x="222.62785076" y="21" type="curve" smooth="yes"/>
      <point x="307.62785076" y="21"/>
      <point x="352.62785076" y="64"/>
      <point x="394.62785076" y="147" type="curve"/>
      <point x="396.62785076" y="147" type="line"/>
      <point x="433.62785076" y="65"/>
      <point x="482.62785076" y="27"/>
      <point x="548.62785076" y="27" type="curve" smooth="yes"/>
      <point x="616.62785076" y="27"/>
      <point x="676.62785076" y="68"/>
      <point x="676.62785076" y="204" type="curve" smooth="yes"/>
      <point x="676.62785076" y="481"/>
      <point x="601.62785076" y="642"/>
      <point x="468.62785076" y="642" type="curve" smooth="yes"/>
      <point x="406.62785076" y="642"/>
      <point x="379.62785076" y="603"/>
      <point x="379.62785076" y="553" type="curve" smooth="yes"/>
      <point x="379.62785076" y="481"/>
      <point x="447.62785076" y="421"/>
      <point x="648.62785076" y="421" type="curve"/>
    </contour>
  </outline>
</glyph>
<glyph name="knBI" format="1">
  <advance width="775"/>
  <outline>
    <contour>
      <point x="88" y="421" type="move"/>
      <point x="113" y="445"/>
      <point x="156" y="463"/>
      <point x="194" y="463" type="curve" smooth="yes"/>
      <point x="250" y="463"/>
      <point x="278" y="424"/>
      <point x="278" y="381" type="curve" smooth="yes"/>
      <point x="278" y="346"/>
      <point x="247" y="307"/>
      <point x="193" y="255" type="curve" smooth="yes"/>
      <point x="147" y="210"/>
      <point x="118" y="164"/>
      <point x="118" y="123" type="curve" smooth="yes"/>
      <point x="118" y="69"/>
      <point x="151" y="21"/>
      <point x="223" y="21" type="curve" smooth="yes"/>
      <point x="308" y="21"/>
      <point x="353" y="64"/>
      <point x="395" y="147" type="curve"/>
      <point x="397" y="147" type="line"/>
      <point x="434" y="65"/>
      <point x="483" y="27"/>
      <point x="549" y="27" type="curve" smooth="yes"/>
      <point x="617" y="27"/>
      <point x="677" y="68"/>
      <point x="677" y="204" type="curve" smooth="yes"/>
      <point x="677" y="481"/>
      <point x="602" y="642"/>
      <point x="469" y="642" type="curve" smooth="yes"/>
      <point x="411" y="642"/>
      <point x="380" y="601"/>
      <point x="380" y="551" type="curve" smooth="yes"/>
      <point x="380" y="479"/>
      <point x="448" y="421"/>
      <point x="649" y="421" type="curve"/>
    </contour>
  </outline>
</glyph>
<glyph name="knCha" format="1">
  <advance width="741"/>
  <outline>
    <contour>
      <point x="432" y="437" type="move"/>
      <point x="511" y="437" type="line" smooth="yes"/>
      <point x="584" y="437"/>
      <point x="627" y="463"/>
      <point x="659" y="515" type="curve" smooth="yes"/>
      <point x="685" y="558"/>
    </contour>
    <contour>
      <point x="369" y="-89" type="move"/>
      <point x="369" y="-192" type="line"/>
    </contour>
    <contour>
      <point x="75" y="344" type="move"/>
      <point x="111" y="316"/>
      <point x="150" y="298"/>
      <point x="202" y="298" type="curve" smooth="yes"/>
      <point x="256" y="298"/>
      <point x="288" y="338"/>
      <point x="288" y="378" type="curve" smooth="yes"/>
      <point x="288" y="418"/>
      <point x="259" y="463"/>
      <point x="200" y="463" type="curve" smooth="yes"/>
      <point x="115" y="463"/>
      <point x="58" y="365"/>
      <point x="58" y="238" type="curve" smooth="yes"/>
      <point x="58" y="129"/>
      <point x="111" y="27"/>
      <point x="223" y="27" type="curve" smooth="yes"/>
      <point x="285" y="27"/>
      <point x="336.84" y="69"/>
      <point x="366.84" y="158" type="curve"/>
      <point x="367.84" y="158" type="line"/>
      <point x="404.84" y="70"/>
      <point x="441.84" y="27"/>
      <point x="507.84" y="27" type="curve" smooth="yes"/>
      <point x="575.84" y="27"/>
      <point x="631.84" y="80"/>
      <point x="631.84" y="172" type="curve" smooth="yes"/>
      <point x="631.84" y="273"/>
      <point x="567" y="376"/>
      <point x="440" y="432" type="curve"/>
    </contour>
  </outline>
</glyph>
<glyph name="knDa.a" format="1">
  <advance width="741"/>
  <outline>
    <contour>
      <point x="100" y="437" type="move"/>
      <point x="511" y="437" type="line" smooth="yes"/>
      <point x="491" y="437"/>
    </contour>
    <contour>
      <point x="291" y="437" type="move"/>
      <point x="167" y="382"/>
      <point x="105" y="274"/>
      <point x="105" y="172" type="curve" smooth="yes"/>
      <point x="105" y="82"/>
      <point x="157" y="27"/>
      <point x="223" y="27" type="curve" smooth="yes"/>
      <point x="285" y="27"/>
      <point x="337" y="69"/>
      <point x="367" y="158" type="curve"/>
      <point x="368" y="158" type="line"/>
      <point x="405" y="70"/>
      <point x="442" y="27"/>
      <point x="508" y="27" type="curve" smooth="yes"/>
      <point x="576" y="27"/>
      <point x="632" y="80"/>
      <point x="632" y="172" type="curve" smooth="yes"/>
      <point x="632" y="273"/>
      <point x="566" y="381"/>
      <point x="439" y="437" type="curve"/>
    </contour>
  </outline>
</glyph>
<glyph name="knDa.c2" format="1">
  <advance width="62"/>
  <outline>
    <contour>
      <point x="-6" y="-87" type="curve" smooth="yes"/>
      <point x="-134" y="-87"/>
      <point x="-202" y="-192"/>
      <point x="-202" y="-258" type="curve" smooth="yes"/>
      <point x="-202" y="-315"/>
      <point x="-164" y="-352"/>
      <point x="-115" y="-352" type="curve" smooth="yes"/>
      <point x="-70" y="-352"/>
      <point x="-31" y="-326"/>
      <point x="-9" y="-267" type="curve"/>
      <point x="-8" y="-267" type="line"/>
      <point x="19" y="-325"/>
      <point x="47" y="-352"/>
      <point x="96" y="-352" type="curve" smooth="yes"/>
      <point x="147" y="-352"/>
      <point x="188" y="-316"/>
      <point x="188" y="-258" type="curve" smooth="yes"/>
      <point x="188" y="-192"/>
      <point x="121" y="-87"/>
    </contour>
  </outline>
</glyph>
<glyph name="knIi" format="1">
  <advance width="936"/>
  <outline>
    <contour>
      <point x="728" y="27" type="move" smooth="yes"/>
      <point x="703" y="133"/>
      <point x="688" y="255"/>
      <point x="688" y="318" type="curve" smooth="yes"/>
      <point x="688" y="388"/>
      <point x="723" y="432"/>
      <point x="768" y="432" type="curve" smooth="yes"/>
      <point x="823" y="432"/>
      <point x="859" y="388"/>
      <point x="859" y="329" type="curve" smooth="yes"/>
      <point x="859" y="268"/>
      <point x="815" y="223"/>
      <point x="741" y="223" type="curve" smooth="yes"/>
      <point x="54" y="223" type="line"/>
    </contour>
    <contour>
      <point x="120" y="437" type="move"/>
      <point x="463" y="437" type="line" smooth="yes"/>
      <point x="536" y="437"/>
      <point x="579" y="463"/>
      <point x="611" y="515" type="curve" smooth="yes"/>
      <point x="637" y="558"/>
    </contour>
    <contour>
      <point x="250" y="437"/>
      <point x="163" y="330"/>
      <point x="163" y="222" type="curve" smooth="yes"/>
      <point x="163" y="103"/>
      <point x="233" y="14"/>
      <point x="361" y="14" type="curve" smooth="yes"/>
      <point x="488" y="14"/>
      <point x="559" y="105"/>
      <point x="559" y="222" type="curve" smooth="yes"/>
      <point x="559" y="328"/>
      <point x="474" y="437"/>
      <point x="361" y="437" type="curve" smooth="yes"/>
    </contour>
  </outline>
</glyph>
<glyph name="knIsign" format="1">
  <advance width="384"/>
  <outline>
    <contour>
      <point x="130" y="305" type="move"/>
      <point x="256" y="314"/>
      <point x="324" y="388"/>
      <point x="324" y="495" type="curve" smooth="yes"/>
      <point x="324" y="574"/>
      <point x="268" y="642"/>
      <point x="185" y="642" type="curve" smooth="yes"/>
      <point x="119" y="642"/>
      <point x="82" y="596"/>
      <point x="82" y="550" type="curve" smooth="yes"/>
      <point x="82" y="502"/>
      <point x="123" y="463"/>
      <point x="182" y="463" type="curve" smooth="yes"/>
      <point x="234" y="463"/>
      <point x="277" y="487"/>
      <point x="312" y="525" type="curve"/>
    </contour>
  </outline>
</glyph>
<glyph name="knLvocal" format="1">
  <advance width="1424"/>
  <outline>
    <contour>
      <point x="524" y="437" type="move"/>
      <point x="636" y="437" type="line" smooth="yes"/>
      <point x="709" y="437"/>
      <point x="752" y="463"/>
      <point x="784" y="515" type="curve" smooth="yes"/>
    </contour>
    <component base="knKha"/>
    <component base="knUusign" xOffset="800"/>
  </outline>
</glyph>
<glyph name="knLa" format="1">
  <advance width="723"/>
  <outline>
    <contour>
      <point x="131" y="344" type="move"/>
      <point x="167" y="316"/>
      <point x="206" y="298"/>
      <point x="258" y="298" type="curve" smooth="yes"/>
      <point x="312" y="298"/>
      <point x="344" y="338"/>
      <point x="344" y="378" type="curve" smooth="yes"/>
      <point x="344" y="418"/>
      <point x="315" y="463"/>
      <point x="256" y="463" type="curve" smooth="yes"/>
      <point x="171" y="463"/>
      <point x="110" y="365"/>
      <point x="110" y="238" type="curve" smooth="yes"/>
      <point x="110" y="129"/>
      <point x="177" y="27"/>
      <point x="363" y="27" type="curve" smooth="yes"/>
      <point x="531" y="27"/>
      <point x="624" y="108"/>
      <point x="624" y="215" type="curve" smooth="yes"/>
      <point x="624" y="299"/>
      <point x="573" y="397"/>
      <point x="488" y="464" type="curve"/>
    </contour>
  </outline>
</glyph>
<glyph name="knLength" format="1">
  <advance width="352"/>
  <outline>
    <contour>
      <point x="76" y="335" type="move"/>
      <point x="107" y="302"/>
      <point x="150" y="284"/>
      <point x="190" y="284" type="curve" smooth="yes"/>
      <point x="244" y="284"/>
      <point x="280" y="321"/>
      <point x="280" y="376" type="curve" smooth="yes"/>
      <point x="280" y="424"/>
      <point x="245" y="463"/>
      <point x="193" y="463" type="curve" smooth="yes"/>
      <point x="119" y="463"/>
      <point x="70" y="376"/>
      <point x="70" y="263" type="curve" smooth="yes"/>
      <point x="70" y="140"/>
      <point x="142" y="61"/>
      <point x="253" y="27" type="curve" smooth="yes"/>
    </contour>
  </outline>
</glyph>
<glyph name="knLvocal" format="1">
  <advance width="1424"/>
  <outline>
    <contour>
      <point x="524" y="437" type="move"/>
      <point x="636" y="437" type="line" smooth="yes"/>
      <point x="709" y="437"/>
      <point x="752" y="463"/>
      <point x="784" y="515" type="curve" smooth="yes"/>
      <point x="810" y="558"/>
    </contour>
    <component base="knKha"/>
    <component base="knUusign" xOffset="800"/>
  </outline>
</glyph>
<glyph name="knNa.a" format="1">
  <advance width="710"/>
  <outline>
    <contour>
      <point x="101" y="437" type="move"/>
      <point x="483" y="437" type="line" smooth="yes"/>
    </contour>
    <contour>
      <point x="180" y="4" type="move"/>
      <point x="147" y="34"/>
      <point x="117" y="83"/>
      <point x="117" y="141" type="curve" smooth="yes"/>
      <point x="117" y="206"/>
      <point x="155" y="260"/>
      <point x="221" y="260" type="curve" smooth="yes"/>
      <point x="289" y="260"/>
      <point x="326" y="211"/>
      <point x="362" y="134" type="curve" smooth="yes"/>
      <point x="394" y="66"/>
      <point x="424" y="27"/>
      <point x="480" y="27" type="curve" smooth="yes"/>
      <point x="548" y="27"/>
      <point x="604" y="80"/>
      <point x="604" y="172" type="curve" smooth="yes"/>
      <point x="604" y="273"/>
      <point x="538" y="381"/>
      <point x="411" y="437" type="curve"/>
    </contour>
  </outline>
</glyph>
<glyph name="knNa.c2" format="1">
  <advance width="188"/>
  <outline>
    <contour>
      <point x="-150" y="-341" type="move"/>
      <point x="-177" y="-318"/>
      <point x="-201" y="-280"/>
      <point x="-201" y="-236" type="curve" smooth="yes"/>
      <point x="-201" y="-186"/>
      <point x="-171" y="-144"/>
      <point x="-117" y="-144" type="curve" smooth="yes"/>
      <point x="-63" y="-144"/>
      <point x="-33" y="-182"/>
      <point x="-5" y="-241" type="curve" smooth="yes"/>
      <point x="21" y="-293"/>
      <point x="45" y="-324"/>
      <point x="90" y="-324" type="curve" smooth="yes"/>
      <point x="145" y="-324"/>
      <point x="190" y="-282"/>
      <point x="190" y="-211" type="curve" smooth="yes"/>
      <point x="190" y="-106"/>
      <point x="146" y="27"/>
      <point x="81" y="129" type="curve"/>
    </contour>
  </outline>
</glyph>
<glyph name="knNa.a" format="1">
  <advance width="710"/>
  <outline>
    <contour>
      <point x="101.08" y="437" type="move"/>
      <point x="483.08" y="437" type="line" smooth="yes"/>
    </contour>
    <contour>
      <point x="180.08" y="4" type="move"/>
      <point x="147.08" y="34"/>
      <point x="117.08" y="83"/>
      <point x="117.08" y="141" type="curve" smooth="yes"/>
      <point x="117.08" y="206"/>
      <point x="155.08" y="260"/>
      <point x="221.08" y="260" type="curve" smooth="yes"/>
      <point x="289.08" y="260"/>
      <point x="326.08" y="211"/>
      <point x="362.08" y="134" type="curve" smooth="yes"/>
      <point x="394.08" y="66"/>
      <point x="424.08" y="27"/>
      <point x="480.08" y="27" type="curve" smooth="yes"/>
      <point x="548.08" y="27"/>
      <point x="604.08" y="80"/>
      <point x="604.08" y="172" type="curve" smooth="yes"/>
      <point x="604.08" y="273"/>
      <point x="538.08" y="381"/>
      <point x="411.08" y="437" type="curve"/>
    </contour>
  </outline>
</glyph>
<glyph name="knNa.c2" format="1">
  <advance width="188"/>
  <outline>
    <contour>
      <point x="-149.72" y="-341" type="move"/>
      <point x="-176.72" y="-318"/>
      <point x="-200.72" y="-280"/>
      <point x="-200.72" y="-236" type="curve" smooth="yes"/>
      <point x="-200.72" y="-186"/>
      <point x="-170.72" y="-144"/>
      <point x="-116.72" y="-144" type="curve" smooth="yes"/>
      <point x="-62.72" y="-144"/>
      <point x="-32.72" y="-182"/>
      <point x="-4.72" y="-241" type="curve" smooth="yes"/>
      <point x="21.28" y="-293"/>
      <point x="45.28" y="-324"/>
      <point x="90.28" y="-324" type="curve" smooth="yes"/>
      <point x="145.28" y="-324"/>
      <point x="190.28" y="-282"/>
      <point x="190.28" y="-211" type="curve" smooth="yes"/>
      <point x="190.28" y="-106"/>
      <point x="146.28" y="27"/>
      <point x="81.28" y="129" type="curve"/>
    </contour>
  </outline>
</glyph>
<glyph name="knNga.copy_1" format="1">
  <advance width="775"/>
  <outline>
    <contour>
      <point x="88" y="421" type="move"/>
      <point x="113" y="445"/>
      <point x="156" y="463"/>
      <point x="194" y="463" type="curve" smooth="yes"/>
      <point x="250" y="463"/>
      <point x="278" y="424"/>
      <point x="278" y="381" type="curve" smooth="yes"/>
      <point x="278" y="346"/>
      <point x="247" y="307"/>
      <point x="193" y="255" type="curve" smooth="yes"/>
      <point x="147" y="210"/>
      <point x="118" y="164"/>
      <point x="118" y="123" type="curve" smooth="yes"/>
      <point x="118" y="69"/>
      <point x="151" y="21"/>
      <point x="223" y="21" type="curve" smooth="yes"/>
      <point x="308" y="21"/>
      <point x="353" y="64"/>
      <point x="395" y="147" type="curve"/>
      <point x="397" y="147" type="line"/>
      <point x="434" y="65"/>
      <point x="483" y="27"/>
      <point x="549" y="27" type="curve" smooth="yes"/>
      <point x="627" y="27"/>
      <point x="678" y="84"/>
      <point x="678" y="154" type="curve" smooth="yes"/>
      <point x="678" y="188"/>
      <point x="668" y="228"/>
      <point x="657" y="253" type="curve"/>
    </contour>
    <contour>
      <point x="241" y="303" type="move"/>
      <point x="339" y="452"/>
      <point x="410" y="505"/>
      <point x="485" y="505" type="curve" smooth="yes"/>
      <point x="556" y="505"/>
      <point x="605" y="466"/>
      <point x="649" y="397" type="curve" smooth="yes"/>
      <point x="674" y="358"/>
    </contour>
    <contour>
      <point x="453" y="379" type="curve" smooth="yes"/>
      <point x="418" y="379"/>
      <point x="390" y="349"/>
      <point x="390" y="320" type="curve" smooth="yes"/>
      <point x="390" y="285"/>
      <point x="416" y="257"/>
      <point x="452" y="257" type="curve" smooth="yes"/>
      <point x="488" y="257"/>
      <point x="514" y="285"/>
      <point x="514" y="320" type="curve" smooth="yes"/>
      <point x="514" y="350"/>
      <point x="489" y="379"/>
    </contour>
  </outline>
</glyph>
<glyph name="knPI" format="1">
  <advance width="741"/>
  <outline>
    <contour>
      <point x="335" y="425" type="curve" smooth="yes"/>
      <point x="426" y="425"/>
      <point x="469" y="472"/>
      <point x="469" y="515" type="curve" smooth="yes"/>
      <point x="469" y="555"/>
      <point x="426" y="612"/>
      <point x="320" y="612" type="curve" smooth="yes"/>
      <point x="219" y="612"/>
      <point x="174" y="565"/>
      <point x="174" y="513" type="curve" smooth="yes"/>
      <point x="174" y="467"/>
      <point x="220" y="425"/>
    </contour>
    <contour>
      <point x="143" y="225" type="move"/>
      <point x="117" y="205"/>
      <point x="98" y="170"/>
      <point x="98" y="128" type="curve" smooth="yes"/>
      <point x="98" y="80"/>
      <point x="131" y="21"/>
      <point x="207" y="21" type="curve" smooth="yes"/>
      <point x="277" y="21"/>
      <point x="336" y="64"/>
      <point x="368" y="147" type="curve"/>
      <point x="370" y="147" type="line"/>
      <point x="407" y="65"/>
      <point x="453" y="27"/>
      <point x="519" y="27" type="curve" smooth="yes"/>
      <point x="587" y="27"/>
      <point x="637" y="78"/>
      <point x="637" y="172" type="curve" smooth="yes"/>
      <point x="637" y="215"/>
      <point x="629" y="265"/>
      <point x="619" y="298" type="curve"/>
    </contour>
    <contour>
      <point x="286" y="426" type="move"/>
      <point x="272" y="409"/>
      <point x="264" y="388"/>
      <point x="264" y="362" type="curve" smooth="yes"/>
      <point x="264" y="311"/>
      <point x="308" y="267"/>
      <point x="373" y="267" type="curve" smooth="yes"/>
      <point x="459" y="267"/>
      <point x="491" y="326"/>
      <point x="491" y="381" type="curve" smooth="yes"/>
      <point x="491" y="428"/>
      <point x="485" y="479"/>
      <point x="470" y="515" type="curve" smooth="yes"/>
    </contour>
  </outline>
</glyph>
<glyph name="knRI" format="1">
  <advance width="660"/>
  <outline>
    <contour>
      <point x="291.92" y="334" type="curve" smooth="yes"/>
      <point x="402.92" y="334"/>
      <point x="471.92" y="402"/>
      <point x="471.92" y="432" type="curve" smooth="yes"/>
      <point x="471.92" y="475"/>
      <point x="396.92" y="548"/>
      <point x="264.92" y="548" type="curve" smooth="yes"/>
      <point x="161.92" y="548"/>
      <point x="117.92" y="503"/>
      <point x="117.92" y="444" type="curve" smooth="yes"/>
      <point x="117.92" y="361"/>
      <point x="198.92" y="334"/>
    </contour>
    <contour>
      <point x="186.92" y="351" type="move"/>
      <point x="145.92" y="326"/>
      <point x="117.92" y="278"/>
      <point x="117.92" y="209" type="curve" smooth="yes"/>
      <point x="117.92" y="103"/>
      <point x="187.92" y="14"/>
      <point x="323.92" y="14" type="curve" smooth="yes"/>
      <point x="455.92" y="14"/>
      <point x="528.92" y="105"/>
      <point x="528.92" y="222" type="curve" smooth="yes"/>
      <point x="528.92" y="285"/>
      <point x="509.92" y="368"/>
      <point x="472.92" y="429" type="curve" smooth="yes"/>
    </contour>
  </outline>
</glyph>
<glyph name="knRI" format="1">
  <advance width="660"/>
  <outline>
    <contour>
      <point x="292" y="334" type="curve" smooth="yes"/>
      <point x="403" y="334"/>
      <point x="472" y="402"/>
      <point x="472" y="432" type="curve" smooth="yes"/>
      <point x="472" y="475"/>
      <point x="397" y="548"/>
      <point x="265" y="548" type="curve" smooth="yes"/>
      <point x="162" y="548"/>
      <point x="118" y="503"/>
      <point x="118" y="444" type="curve" smooth="yes"/>
      <point x="118" y="361"/>
      <point x="199" y="334"/>
    </contour>
    <contour>
      <point x="187" y="351" type="move"/>
      <point x="146" y="326"/>
      <point x="118" y="278"/>
      <point x="118" y="209" type="curve" smooth="yes"/>
      <point x="118" y="103"/>
      <point x="188" y="14"/>
      <point x="324" y="14" type="curve" smooth="yes"/>
      <point x="456" y="14"/>
      <point x="529" y="105"/>
      <point x="529" y="222" type="curve" smooth="yes"/>
      <point x="529" y="285"/>
      <point x="510" y="368"/>
      <point x="473" y="429" type="curve" smooth="yes"/>
    </contour>
  </outline>
</glyph>
<glyph name="knRrvocalsign" format="1">
  <advance width="497"/>
  <outline>
    <contour>
      <point x="-132" y="-269" type="move"/>
      <point x="-23" y="-262"/>
      <point x="31" y="-216"/>
      <point x="31" y="-163" type="curve" smooth="yes"/>
      <point x="31" y="-116"/>
      <point x="-1" y="-80"/>
      <point x="-55" y="-81" type="curve" smooth="yes"/>
      <point x="-112" y="-82"/>
      <point x="-161" y="-126"/>
      <point x="-161" y="-208" type="curve" smooth="yes"/>
      <point x="-161" y="-311"/>
      <point x="-92" y="-383"/>
      <point x="13" y="-383" type="curve" smooth="yes"/>
      <point x="124" y="-383"/>
      <point x="190" y="-315"/>
      <point x="190.28" y="-211" type="curve" smooth="yes"/>
      <point x="191" y="-106"/>
      <point x="146.28" y="27"/>
      <point x="81.28" y="129" type="curve"/>
    </contour>
    <contour>
      <point x="77.0" y="139.0" type="move"/>
      <point x="283" y="139" type="line" smooth="yes"/>
      <point x="435" y="139"/>
      <point x="519" y="50"/>
      <point x="519" y="-67" type="curve" smooth="yes"/>
      <point x="519" y="-140"/>
      <point x="479" y="-183"/>
      <point x="427" y="-183" type="curve" smooth="yes"/>
      <point x="377" y="-183"/>
      <point x="346" y="-147"/>
      <point x="346" y="-107" type="curve" smooth="yes"/>
      <point x="346" y="-60"/>
      <point x="384" y="-12"/>
      <point x="500" y="7" type="curve"/>
    </contour>
  </outline>
</glyph>
<glyph name="knRvocal" format="1">
  <advance width="1066"/>
  <outline>
    <contour>
      <point x="524" y="437" type="move"/>
      <point x="636" y="437" type="line" smooth="yes"/>
      <point x="709" y="437"/>
      <point x="752" y="463"/>
      <point x="784" y="515" type="curve" smooth="yes"/>
      <point x="810" y="558"/>
    </contour>
    <component base="knKha"/>
    <component base="knUsign" xOffset="786"/>
  </outline>
</glyph>
<glyph name="knRvocalsign" format="1">
  <advance width="188"/>
  <outline>
    <contour>
      <point x="-132" y="-269" type="move"/>
      <point x="-23" y="-262"/>
      <point x="31" y="-216"/>
      <point x="31" y="-163" type="curve" smooth="yes"/>
      <point x="31" y="-116"/>
      <point x="-1" y="-80"/>
      <point x="-55" y="-81" type="curve" smooth="yes"/>
      <point x="-112" y="-82"/>
      <point x="-161" y="-126"/>
      <point x="-161" y="-208" type="curve" smooth="yes"/>
      <point x="-161" y="-311"/>
      <point x="-92" y="-383"/>
      <point x="13" y="-383" type="curve" smooth="yes"/>
      <point x="124" y="-383"/>
      <point x="190" y="-315"/>
      <point x="190.28" y="-211" type="curve" smooth="yes"/>
      <point x="191" y="-106"/>
      <point x="146.28" y="27"/>
      <point x="81.28" y="129" type="curve"/>
    </contour>
  </outline>
</glyph>
<glyph name="knTtha.copy_1" format="1">
  <advance width="660"/>
  <outline>
    <contour>
      <point x="100" y="437" type="move"/>
      <point x="432" y="437" type="line" smooth="yes"/>
      <point x="505" y="437"/>
      <point x="548" y="463"/>
      <point x="580" y="515" type="curve" smooth="yes"/>
      <point x="606" y="558"/>
    </contour>
    <contour>
      <point x="208" y="437"/>
      <point x="117" y="330"/>
      <point x="117" y="222" type="curve" smooth="yes"/>
      <point x="117" y="103"/>
      <point x="191" y="14"/>
      <point x="323" y="14" type="curve" smooth="yes"/>
      <point x="455" y="14"/>
      <point x="528" y="105"/>
      <point x="528" y="222" type="curve" smooth="yes"/>
      <point x="528" y="328"/>
      <point x="439" y="437"/>
      <point x="323" y="437" type="curve" smooth="yes"/>
    </contour>
    <contour>
      <point x="322" y="289" type="curve" smooth="yes"/>
      <point x="287" y="289"/>
      <point x="259" y="259"/>
      <point x="259" y="230" type="curve" smooth="yes"/>
      <point x="259" y="195"/>
      <point x="285" y="167"/>
      <point x="321" y="167" type="curve" smooth="yes"/>
      <point x="357" y="167"/>
      <point x="383" y="195"/>
      <point x="383" y="230" type="curve" smooth="yes"/>
      <point x="383" y="260"/>
      <point x="358" y="289"/>
    </contour>
  </outline>
</glyph>
<glyph name="knTtha.copy_1" format="1">
  <advance width="660"/>
  <outline>
    <contour>
      <point x="99.84" y="437" type="move"/>
      <point x="431.84" y="437" type="line" smooth="yes"/>
      <point x="504.84" y="437"/>
      <point x="547.84" y="463"/>
      <point x="579.84" y="515" type="curve" smooth="yes"/>
      <point x="605.84" y="558"/>
    </contour>
    <contour>
      <point x="207.84" y="437"/>
      <point x="116.84" y="330"/>
      <point x="116.84" y="222" type="curve" smooth="yes"/>
      <point x="116.84" y="103"/>
      <point x="190.84" y="14"/>
      <point x="322.84" y="14" type="curve" smooth="yes"/>
      <point x="454.84" y="14"/>
      <point x="527.84" y="105"/>
      <point x="527.84" y="222" type="curve" smooth="yes"/>
      <point x="527.84" y="328"/>
      <point x="438.84" y="437"/>
      <point x="322.84" y="437" type="curve" smooth="yes"/>
    </contour>
    <contour>
      <point x="321.84" y="289" type="curve" smooth="yes"/>
      <point x="286.84" y="289"/>
      <point x="258.84" y="259"/>
      <point x="258.84" y="230" type="curve" smooth="yes"/>
      <point x="258.84" y="195"/>
      <point x="284.84" y="167"/>
      <point x="320.84" y="167" type="curve" smooth="yes"/>
      <point x="356.84" y="167"/>
      <point x="382.84" y="195"/>
      <point x="382.84" y="230" type="curve" smooth="yes"/>
      <point x="382.84" y="260"/>
      <point x="357.84" y="289"/>
    </contour>
  </outline>
</glyph>
<glyph name="knUsign.b" format="1">
  <advance width="228"/>
  <outline>
    <contour>
      <point x="-325" y="89" type="move"/>
      <point x="-234" y="-57"/>
      <point x="-148" y="-113"/>
      <point x="-42" y="-113" type="curve" smooth="yes"/>
      <point x="65" y="-113"/>
      <point x="152" y="-21"/>
      <point x="152" y="144" type="curve" smooth="yes"/>
      <point x="152" y="249"/>
      <point x="113" y="347"/>
      <point x="54" y="414" type="curve"/>
    </contour>
  </outline>
</glyph>
<glyph name="knUsign.b" format="1">
  <advance width="228"/>
  <outline>
    <contour>
      <point x="-325.456292188" y="89" type="move"/>
      <point x="-234.456292188" y="-57"/>
      <point x="-148.456292188" y="-113"/>
      <point x="-42.4562921882" y="-113" type="curve" smooth="yes"/>
      <point x="64.5437078118" y="-113"/>
      <point x="151.543707812" y="-21"/>
      <point x="151.543707812" y="144" type="curve" smooth="yes"/>
      <point x="151.543707812" y="249"/>
      <point x="112.543707812" y="347"/>
      <point x="53.5437078118" y="414" type="curve"/>
    </contour>
  </outline>
</glyph>
<glyph name="knUu" format="1">
  <advance width="1387"/>
  <outline>
    <contour>
      <point x="139" y="330" type="move"/>
      <point x="177" y="292"/>
      <point x="221" y="268"/>
      <point x="266" y="268" type="curve" smooth="yes"/>
      <point x="332" y="268"/>
      <point x="369" y="311"/>
      <point x="369" y="368" type="curve" smooth="yes"/>
      <point x="369" y="418"/>
      <point x="333" y="463"/>
      <point x="272" y="463" type="curve" smooth="yes"/>
      <point x="187" y="463"/>
      <point x="126" y="365"/>
      <point x="126" y="238" type="curve" smooth="yes"/>
      <point x="126" y="123"/>
      <point x="198" y="14"/>
      <point x="336" y="14" type="curve" smooth="yes"/>
      <point x="385" y="14"/>
      <point x="418" y="28"/>
      <point x="443" y="53" type="curve" smooth="yes"/>
      <point x="475" y="85"/>
      <point x="492" y="155"/>
      <point x="506" y="248" type="curve" smooth="yes"/>
      <point x="525" y="373"/>
      <point x="566" y="415"/>
      <point x="623" y="415" type="curve" smooth="yes"/>
      <point x="688" y="415"/>
      <point x="725" y="361"/>
      <point x="733" y="220" type="curve" smooth="yes"/>
      <point x="738" y="130"/>
      <point x="759" y="84"/>
      <point x="782" y="61" type="curve" smooth="yes"/>
      <point x="804" y="39"/>
      <point x="834" y="27"/>
      <point x="870" y="27" type="curve" smooth="yes"/>
      <point x="929" y="27"/>
      <point x="960" y="60"/>
      <point x="960" y="125" type="curve" smooth="yes"/>
      <point x="960" y="188"/>
      <point x="933" y="255"/>
      <point x="933" y="325" type="curve" smooth="yes"/>
      <point x="933" y="384"/>
      <point x="974" y="437"/>
      <point x="1043" y="437" type="curve" smooth="yes"/>
      <point x="1189" y="437"/>
      <point x="1294" y="343"/>
      <point x="1294" y="160" type="curve" smooth="yes"/>
      <point x="1294" y="67"/>
      <point x="1247" y="12"/>
      <point x="1184" y="12" type="curve" smooth="yes"/>
      <point x="1125" y="12"/>
      <point x="1088" y="48"/>
      <point x="1087" y="106" type="curve" smooth="yes"/>
      <point x="1086" y="168"/>
      <point x="1135" y="235"/>
      <point x="1265" y="244" type="curve"/>
    </contour>
  </outline>
</glyph>
<glyph name="knUusign.b" format="1">
  <advance width="587"/>
  <outline>
    <contour>
      <point x="-325.456292188" y="89" type="move"/>
      <point x="-234.456292188" y="-57"/>
      <point x="-148.456292188" y="-113"/>
      <point x="-42.4562921882" y="-113" type="curve" smooth="yes"/>
      <point x="52.5437078118" y="-113"/>
      <point x="102.543707812" y="-41"/>
      <point x="102.543707812" y="104" type="curve" smooth="yes"/>
      <point x="102.543707812" y="187"/>
      <point x="83.5437078118" y="255"/>
      <point x="83.5437078118" y="325" type="curve" smooth="yes"/>
      <point x="83.5437078118" y="384"/>
      <point x="124.543707812" y="437"/>
      <point x="193.543707812" y="437" type="curve" smooth="yes"/>
      <point x="339.543707812" y="437"/>
      <point x="444" y="343"/>
      <point x="444.543707812" y="160" type="curve" smooth="yes"/>
      <point x="445" y="69"/>
      <point x="398" y="12"/>
      <point x="334.543707812" y="12" type="curve" smooth="yes"/>
      <point x="279" y="12"/>
      <point x="239" y="50"/>
      <point x="237.543707812" y="106" type="curve" smooth="yes"/>
      <point x="236" y="168"/>
      <point x="285.543707812" y="235"/>
      <point x="415.543707812" y="244" type="curve"/>
    </contour>
  </outline>
</glyph>
<glyph name="knVirama" format="1">
  <advance width="317"/>
  <outline>
    <contour>
      <point x="-218" y="437" type="move"/>
      <point x="92" y="437" type="line" smooth="yes"/>
      <point x="183" y="437"/>
      <point x="224" y="390"/>
      <point x="224" y="326" type="curve" smooth="yes"/>
      <point x="224" y="273"/>
      <point x="191" y="229"/>
      <point x="130" y="229" type="curve" smooth="yes"/>
      <point x="74" y="229"/>
      <point x="31" y="271"/>
      <point x="31" y="333" type="curve" smooth="yes"/>
      <point x="31" y="417"/>
      <point x="94" y="498"/>
      <point x="162" y="567" type="curve"/>
    </contour>
  </outline>
</glyph>
